<svg width="715" height="332" viewBox="0 0 715 332" fill="none" xmlns="http://www.w3.org/2000/svg">
<rect width="715" height="332" fill="url(#paint0_linear)"/>
<rect x="375" y="20" width="213" height="48" fill="#143941"/>
<path d="M27.12 37.28H18.16V32H42.56V37.28H33.6V60H27.12V37.28ZM70.7266 32V60H64.2466V48.52H51.5266V60H45.0466V32H51.5266V43.04H64.2466V32H70.7266ZM89.9113 60.48C87.0046 60.48 84.3779 59.8533 82.0313 58.6C79.7113 57.3467 77.8846 55.6267 76.5513 53.44C75.2446 51.2267 74.5913 48.7467 74.5913 46C74.5913 43.2533 75.2446 40.7867 76.5513 38.6C77.8846 36.3867 79.7113 34.6533 82.0313 33.4C84.3779 32.1467 87.0046 31.52 89.9113 31.52C92.8179 31.52 95.4313 32.1467 97.7513 33.4C100.071 34.6533 101.898 36.3867 103.231 38.6C104.565 40.7867 105.231 43.2533 105.231 46C105.231 48.7467 104.565 51.2267 103.231 53.44C101.898 55.6267 100.071 57.3467 97.7513 58.6C95.4313 59.8533 92.8179 60.48 89.9113 60.48ZM89.9113 54.96C91.5646 54.96 93.0579 54.5867 94.3913 53.84C95.7246 53.0667 96.7646 52 97.5113 50.64C98.2846 49.28 98.6713 47.7333 98.6713 46C98.6713 44.2667 98.2846 42.72 97.5113 41.36C96.7646 40 95.7246 38.9467 94.3913 38.2C93.0579 37.4267 91.5646 37.04 89.9113 37.04C88.2579 37.04 86.7646 37.4267 85.4313 38.2C84.0979 38.9467 83.0446 40 82.2713 41.36C81.5246 42.72 81.1513 44.2667 81.1513 46C81.1513 47.7333 81.5246 49.28 82.2713 50.64C83.0446 52 84.0979 53.0667 85.4313 53.84C86.7646 54.5867 88.2579 54.96 89.9113 54.96ZM118.301 60.48C116.088 60.48 113.941 60.1867 111.861 59.6C109.808 58.9867 108.155 58.2 106.901 57.24L109.101 52.36C110.301 53.24 111.728 53.9467 113.381 54.48C115.035 55.0133 116.688 55.28 118.341 55.28C120.181 55.28 121.541 55.0133 122.421 54.48C123.301 53.92 123.741 53.1867 123.741 52.28C123.741 51.6133 123.475 51.0667 122.941 50.64C122.435 50.1867 121.768 49.8267 120.941 49.56C120.141 49.2933 119.048 49 117.661 48.68C115.528 48.1733 113.781 47.6667 112.421 47.16C111.061 46.6533 109.888 45.84 108.901 44.72C107.941 43.6 107.461 42.1067 107.461 40.24C107.461 38.6133 107.901 37.1467 108.781 35.84C109.661 34.5067 110.981 33.4533 112.741 32.68C114.528 31.9067 116.701 31.52 119.261 31.52C121.048 31.52 122.795 31.7333 124.501 32.16C126.208 32.5867 127.701 33.2 128.981 34L126.981 38.92C124.395 37.4533 121.808 36.72 119.221 36.72C117.408 36.72 116.061 37.0133 115.181 37.6C114.328 38.1867 113.901 38.96 113.901 39.92C113.901 40.88 114.395 41.6 115.381 42.08C116.395 42.5333 117.928 42.9867 119.981 43.44C122.115 43.9467 123.861 44.4533 125.221 44.96C126.581 45.4667 127.741 46.2667 128.701 47.36C129.688 48.4533 130.181 49.9333 130.181 51.8C130.181 53.4 129.728 54.8667 128.821 56.2C127.941 57.5067 126.608 58.5467 124.821 59.32C123.035 60.0933 120.861 60.48 118.301 60.48ZM155.289 54.8V60H133.609V32H154.769V37.2H140.049V43.28H153.049V48.32H140.049V54.8H155.289ZM212.093 32L202.933 60H195.973L189.813 41.04L183.453 60H176.533L167.333 32H174.053L180.373 51.68L186.973 32H192.973L199.373 51.84L205.893 32H212.093ZM240.391 32V60H233.911V48.52H221.191V60H214.711V32H221.191V43.04H233.911V32H240.391ZM259.575 60.48C256.669 60.48 254.042 59.8533 251.695 58.6C249.375 57.3467 247.549 55.6267 246.215 53.44C244.909 51.2267 244.255 48.7467 244.255 46C244.255 43.2533 244.909 40.7867 246.215 38.6C247.549 36.3867 249.375 34.6533 251.695 33.4C254.042 32.1467 256.669 31.52 259.575 31.52C262.482 31.52 265.095 32.1467 267.415 33.4C269.735 34.6533 271.562 36.3867 272.895 38.6C274.229 40.7867 274.895 43.2533 274.895 46C274.895 48.7467 274.229 51.2267 272.895 53.44C271.562 55.6267 269.735 57.3467 267.415 58.6C265.095 59.8533 262.482 60.48 259.575 60.48ZM259.575 54.96C261.229 54.96 262.722 54.5867 264.055 53.84C265.389 53.0667 266.429 52 267.175 50.64C267.949 49.28 268.335 47.7333 268.335 46C268.335 44.2667 267.949 42.72 267.175 41.36C266.429 40 265.389 38.9467 264.055 38.2C262.722 37.4267 261.229 37.04 259.575 37.04C257.922 37.04 256.429 37.4267 255.095 38.2C253.762 38.9467 252.709 40 251.935 41.36C251.189 42.72 250.815 44.2667 250.815 46C250.815 47.7333 251.189 49.28 251.935 50.64C252.709 52 253.762 53.0667 255.095 53.84C256.429 54.5867 257.922 54.96 259.575 54.96ZM307.533 54H294.533L292.053 60H285.413L297.893 32H304.293L316.813 60H310.013L307.533 54ZM305.493 49.08L301.053 38.36L296.613 49.08H305.493ZM336.558 60L331.158 52.2H330.838H325.198V60H318.718V32H330.838C333.318 32 335.465 32.4133 337.278 33.24C339.118 34.0667 340.532 35.24 341.518 36.76C342.505 38.28 342.998 40.08 342.998 42.16C342.998 44.24 342.492 46.04 341.478 47.56C340.492 49.0533 339.078 50.2 337.238 51L343.518 60H336.558ZM336.438 42.16C336.438 40.5867 335.932 39.3867 334.918 38.56C333.905 37.7067 332.425 37.28 330.478 37.28H325.198V47.04H330.478C332.425 47.04 333.905 46.6133 334.918 45.76C335.932 44.9067 336.438 43.7067 336.438 42.16ZM368.812 54.8V60H347.133V32H368.293V37.2H353.573V43.28H366.573V48.32H353.573V54.8H368.812ZM408.977 32V60H402.497V48.52H389.777V60H383.297V32H389.777V43.04H402.497V32H408.977ZM433.041 54H420.041L417.561 60H410.921L423.401 32H429.801L442.321 60H435.521L433.041 54ZM431.001 49.08L426.561 38.36L422.121 49.08H431.001ZM456.346 32C458.826 32 460.973 32.4133 462.786 33.24C464.626 34.0667 466.04 35.24 467.026 36.76C468.013 38.28 468.506 40.08 468.506 42.16C468.506 44.2133 468.013 46.0133 467.026 47.56C466.04 49.08 464.626 50.2533 462.786 51.08C460.973 51.88 458.826 52.28 456.346 52.28H450.706V60H444.226V32H456.346ZM455.986 47C457.933 47 459.413 46.5867 460.426 45.76C461.44 44.9067 461.946 43.7067 461.946 42.16C461.946 40.5867 461.44 39.3867 460.426 38.56C459.413 37.7067 457.933 37.28 455.986 37.28H450.706V47H455.986ZM484.253 32C486.733 32 488.879 32.4133 490.693 33.24C492.533 34.0667 493.946 35.24 494.933 36.76C495.919 38.28 496.413 40.08 496.413 42.16C496.413 44.2133 495.919 46.0133 494.933 47.56C493.946 49.08 492.533 50.2533 490.693 51.08C488.879 51.88 486.733 52.28 484.253 52.28H478.613V60H472.133V32H484.253ZM483.893 47C485.839 47 487.319 46.5867 488.333 45.76C489.346 44.9067 489.853 43.7067 489.853 42.16C489.853 40.5867 489.346 39.3867 488.333 38.56C487.319 37.7067 485.839 37.28 483.893 37.28H478.613V47H483.893ZM500.039 32H506.519V60H500.039V32ZM533.844 54.8V60H512.164V32H533.324V37.2H518.604V43.28H531.604V48.32H518.604V54.8H533.844ZM547.2 60.48C544.986 60.48 542.84 60.1867 540.76 59.6C538.706 58.9867 537.053 58.2 535.8 57.24L538 52.36C539.2 53.24 540.626 53.9467 542.28 54.48C543.933 55.0133 545.586 55.28 547.24 55.28C549.08 55.28 550.44 55.0133 551.32 54.48C552.2 53.92 552.64 53.1867 552.64 52.28C552.64 51.6133 552.373 51.0667 551.84 50.64C551.333 50.1867 550.666 49.8267 549.84 49.56C549.04 49.2933 547.946 49 546.56 48.68C544.426 48.1733 542.68 47.6667 541.32 47.16C539.96 46.6533 538.786 45.84 537.8 44.72C536.84 43.6 536.36 42.1067 536.36 40.24C536.36 38.6133 536.8 37.1467 537.68 35.84C538.56 34.5067 539.88 33.4533 541.64 32.68C543.426 31.9067 545.6 31.52 548.16 31.52C549.946 31.52 551.693 31.7333 553.4 32.16C555.106 32.5867 556.6 33.2 557.88 34L555.88 38.92C553.293 37.4533 550.706 36.72 548.12 36.72C546.306 36.72 544.96 37.0133 544.08 37.6C543.226 38.1867 542.8 38.96 542.8 39.92C542.8 40.88 543.293 41.6 544.28 42.08C545.293 42.5333 546.826 42.9867 548.88 43.44C551.013 43.9467 552.76 44.4533 554.12 44.96C555.48 45.4667 556.64 46.2667 557.6 47.36C558.586 48.4533 559.08 49.9333 559.08 51.8C559.08 53.4 558.626 54.8667 557.72 56.2C556.84 57.5067 555.506 58.5467 553.72 59.32C551.933 60.0933 549.76 60.48 547.2 60.48ZM567.917 37.28H558.957V32H583.357V37.28H574.397V60H567.917V37.28ZM614.612 54H601.612L599.132 60H592.492L604.972 32H611.372L623.892 60H617.092L614.612 54ZM612.572 49.08L608.132 38.36L603.692 49.08H612.572ZM643.637 60L638.237 52.2H637.917H632.277V60H625.797V32H637.917C640.397 32 642.543 32.4133 644.357 33.24C646.197 34.0667 647.61 35.24 648.597 36.76C649.583 38.28 650.077 40.08 650.077 42.16C650.077 44.24 649.57 46.04 648.557 47.56C647.57 49.0533 646.157 50.2 644.317 51L650.597 60H643.637ZM643.517 42.16C643.517 40.5867 643.01 39.3867 641.997 38.56C640.983 37.7067 639.503 37.28 637.557 37.28H632.277V47.04H637.557C639.503 47.04 640.983 46.6133 641.997 45.76C643.01 44.9067 643.517 43.7067 643.517 42.16ZM675.891 54.8V60H654.211V32H675.371V37.2H660.651V43.28H673.651V48.32H660.651V54.8H675.891ZM27.12 86.28H18.16V81H42.56V86.28H33.6V109H27.12V86.28ZM70.7266 81V109H64.2466V97.52H51.5266V109H45.0466V81H51.5266V92.04H64.2466V81H70.7266ZM89.9113 109.48C87.0046 109.48 84.3779 108.853 82.0313 107.6C79.7113 106.347 77.8846 104.627 76.5513 102.44C75.2446 100.227 74.5913 97.7467 74.5913 95C74.5913 92.2533 75.2446 89.7867 76.5513 87.6C77.8846 85.3867 79.7113 83.6533 82.0313 82.4C84.3779 81.1467 87.0046 80.52 89.9113 80.52C92.8179 80.52 95.4313 81.1467 97.7513 82.4C100.071 83.6533 101.898 85.3867 103.231 87.6C104.565 89.7867 105.231 92.2533 105.231 95C105.231 97.7467 104.565 100.227 103.231 102.44C101.898 104.627 100.071 106.347 97.7513 107.6C95.4313 108.853 92.8179 109.48 89.9113 109.48ZM89.9113 103.96C91.5646 103.96 93.0579 103.587 94.3913 102.84C95.7246 102.067 96.7646 101 97.5113 99.64C98.2846 98.28 98.6713 96.7333 98.6713 95C98.6713 93.2667 98.2846 91.72 97.5113 90.36C96.7646 89 95.7246 87.9467 94.3913 87.2C93.0579 86.4267 91.5646 86.04 89.9113 86.04C88.2579 86.04 86.7646 86.4267 85.4313 87.2C84.0979 87.9467 83.0446 89 82.2713 90.36C81.5246 91.72 81.1513 93.2667 81.1513 95C81.1513 96.7333 81.5246 98.28 82.2713 99.64C83.0446 101 84.0979 102.067 85.4313 102.84C86.7646 103.587 88.2579 103.96 89.9113 103.96ZM118.301 109.48C116.088 109.48 113.941 109.187 111.861 108.6C109.808 107.987 108.155 107.2 106.901 106.24L109.101 101.36C110.301 102.24 111.728 102.947 113.381 103.48C115.035 104.013 116.688 104.28 118.341 104.28C120.181 104.28 121.541 104.013 122.421 103.48C123.301 102.92 123.741 102.187 123.741 101.28C123.741 100.613 123.475 100.067 122.941 99.64C122.435 99.1867 121.768 98.8267 120.941 98.56C120.141 98.2933 119.048 98 117.661 97.68C115.528 97.1733 113.781 96.6667 112.421 96.16C111.061 95.6533 109.888 94.84 108.901 93.72C107.941 92.6 107.461 91.1067 107.461 89.24C107.461 87.6133 107.901 86.1467 108.781 84.84C109.661 83.5067 110.981 82.4533 112.741 81.68C114.528 80.9067 116.701 80.52 119.261 80.52C121.048 80.52 122.795 80.7333 124.501 81.16C126.208 81.5867 127.701 82.2 128.981 83L126.981 87.92C124.395 86.4533 121.808 85.72 119.221 85.72C117.408 85.72 116.061 86.0133 115.181 86.6C114.328 87.1867 113.901 87.96 113.901 88.92C113.901 89.88 114.395 90.6 115.381 91.08C116.395 91.5333 117.928 91.9867 119.981 92.44C122.115 92.9467 123.861 93.4533 125.221 93.96C126.581 94.4667 127.741 95.2667 128.701 96.36C129.688 97.4533 130.181 98.9333 130.181 100.8C130.181 102.4 129.728 103.867 128.821 105.2C127.941 106.507 126.608 107.547 124.821 108.32C123.035 109.093 120.861 109.48 118.301 109.48ZM155.289 103.8V109H133.609V81H154.769V86.2H140.049V92.28H153.049V97.32H140.049V103.8H155.289ZM212.093 81L202.933 109H195.973L189.813 90.04L183.453 109H176.533L167.333 81H174.053L180.373 100.68L186.973 81H192.973L199.373 100.84L205.893 81H212.093ZM240.391 81V109H233.911V97.52H221.191V109H214.711V81H221.191V92.04H233.911V81H240.391ZM259.575 109.48C256.669 109.48 254.042 108.853 251.695 107.6C249.375 106.347 247.549 104.627 246.215 102.44C244.909 100.227 244.255 97.7467 244.255 95C244.255 92.2533 244.909 89.7867 246.215 87.6C247.549 85.3867 249.375 83.6533 251.695 82.4C254.042 81.1467 256.669 80.52 259.575 80.52C262.482 80.52 265.095 81.1467 267.415 82.4C269.735 83.6533 271.562 85.3867 272.895 87.6C274.229 89.7867 274.895 92.2533 274.895 95C274.895 97.7467 274.229 100.227 272.895 102.44C271.562 104.627 269.735 106.347 267.415 107.6C265.095 108.853 262.482 109.48 259.575 109.48ZM259.575 103.96C261.229 103.96 262.722 103.587 264.055 102.84C265.389 102.067 266.429 101 267.175 99.64C267.949 98.28 268.335 96.7333 268.335 95C268.335 93.2667 267.949 91.72 267.175 90.36C266.429 89 265.389 87.9467 264.055 87.2C262.722 86.4267 261.229 86.04 259.575 86.04C257.922 86.04 256.429 86.4267 255.095 87.2C253.762 87.9467 252.709 89 251.935 90.36C251.189 91.72 250.815 93.2667 250.815 95C250.815 96.7333 251.189 98.28 251.935 99.64C252.709 101 253.762 102.067 255.095 102.84C256.429 103.587 257.922 103.96 259.575 103.96ZM289.093 81H301.813C304.853 81 307.533 81.5867 309.853 82.76C312.2 83.9067 314.013 85.5333 315.293 87.64C316.6 89.7467 317.253 92.2 317.253 95C317.253 97.8 316.6 100.253 315.293 102.36C314.013 104.467 312.2 106.107 309.853 107.28C307.533 108.427 304.853 109 301.813 109H289.093V81ZM301.493 103.68C304.293 103.68 306.52 102.907 308.173 101.36C309.853 99.7867 310.693 97.6667 310.693 95C310.693 92.3333 309.853 90.2267 308.173 88.68C306.52 87.1067 304.293 86.32 301.493 86.32H295.573V103.68H301.493ZM334.7 109.48C331.794 109.48 329.167 108.853 326.82 107.6C324.5 106.347 322.674 104.627 321.34 102.44C320.034 100.227 319.38 97.7467 319.38 95C319.38 92.2533 320.034 89.7867 321.34 87.6C322.674 85.3867 324.5 83.6533 326.82 82.4C329.167 81.1467 331.794 80.52 334.7 80.52C337.607 80.52 340.22 81.1467 342.54 82.4C344.86 83.6533 346.687 85.3867 348.02 87.6C349.354 89.7867 350.02 92.2533 350.02 95C350.02 97.7467 349.354 100.227 348.02 102.44C346.687 104.627 344.86 106.347 342.54 107.6C340.22 108.853 337.607 109.48 334.7 109.48ZM334.7 103.96C336.354 103.96 337.847 103.587 339.18 102.84C340.514 102.067 341.554 101 342.3 99.64C343.074 98.28 343.46 96.7333 343.46 95C343.46 93.2667 343.074 91.72 342.3 90.36C341.554 89 340.514 87.9467 339.18 87.2C337.847 86.4267 336.354 86.04 334.7 86.04C333.047 86.04 331.554 86.4267 330.22 87.2C328.887 87.9467 327.834 89 327.06 90.36C326.314 91.72 325.94 93.2667 325.94 95C325.94 96.7333 326.314 98.28 327.06 99.64C327.834 101 328.887 102.067 330.22 102.84C331.554 103.587 333.047 103.96 334.7 103.96ZM370.018 86.28H361.058V81H385.458V86.28H376.498V109H370.018V86.28ZM413.625 81V109H407.145V97.52H394.425V109H387.945V81H394.425V92.04H407.145V81H413.625ZM440.93 103.8V109H419.25V81H440.41V86.2H425.69V92.28H438.69V97.32H425.69V103.8H440.93ZM480.894 109L480.854 92.2L472.614 106.04H469.694L461.494 92.56V109H455.414V81H460.774L471.254 98.4L481.574 81H486.894L486.974 109H480.894ZM506.177 109.48C503.27 109.48 500.644 108.853 498.297 107.6C495.977 106.347 494.15 104.627 492.817 102.44C491.51 100.227 490.857 97.7467 490.857 95C490.857 92.2533 491.51 89.7867 492.817 87.6C494.15 85.3867 495.977 83.6533 498.297 82.4C500.644 81.1467 503.27 80.52 506.177 80.52C509.084 80.52 511.697 81.1467 514.017 82.4C516.337 83.6533 518.164 85.3867 519.497 87.6C520.83 89.7867 521.497 92.2533 521.497 95C521.497 97.7467 520.83 100.227 519.497 102.44C518.164 104.627 516.337 106.347 514.017 107.6C511.697 108.853 509.084 109.48 506.177 109.48ZM506.177 103.96C507.83 103.96 509.324 103.587 510.657 102.84C511.99 102.067 513.03 101 513.777 99.64C514.55 98.28 514.937 96.7333 514.937 95C514.937 93.2667 514.55 91.72 513.777 90.36C513.03 89 511.99 87.9467 510.657 87.2C509.324 86.4267 507.83 86.04 506.177 86.04C504.524 86.04 503.03 86.4267 501.697 87.2C500.364 87.9467 499.31 89 498.537 90.36C497.79 91.72 497.417 93.2667 497.417 95C497.417 96.7333 497.79 98.28 498.537 99.64C499.31 101 500.364 102.067 501.697 102.84C503.03 103.587 504.524 103.96 506.177 103.96ZM534.567 109.48C532.354 109.48 530.207 109.187 528.127 108.6C526.074 107.987 524.42 107.2 523.167 106.24L525.367 101.36C526.567 102.24 527.994 102.947 529.647 103.48C531.3 104.013 532.954 104.28 534.607 104.28C536.447 104.28 537.807 104.013 538.687 103.48C539.567 102.92 540.007 102.187 540.007 101.28C540.007 100.613 539.74 100.067 539.207 99.64C538.7 99.1867 538.034 98.8267 537.207 98.56C536.407 98.2933 535.314 98 533.927 97.68C531.794 97.1733 530.047 96.6667 528.687 96.16C527.327 95.6533 526.154 94.84 525.167 93.72C524.207 92.6 523.727 91.1067 523.727 89.24C523.727 87.6133 524.167 86.1467 525.047 84.84C525.927 83.5067 527.247 82.4533 529.007 81.68C530.794 80.9067 532.967 80.52 535.527 80.52C537.314 80.52 539.06 80.7333 540.767 81.16C542.474 81.5867 543.967 82.2 545.247 83L543.247 87.92C540.66 86.4533 538.074 85.72 535.487 85.72C533.674 85.72 532.327 86.0133 531.447 86.6C530.594 87.1867 530.167 87.96 530.167 88.92C530.167 89.88 530.66 90.6 531.647 91.08C532.66 91.5333 534.194 91.9867 536.247 92.44C538.38 92.9467 540.127 93.4533 541.487 93.96C542.847 94.4667 544.007 95.2667 544.967 96.36C545.954 97.4533 546.447 98.9333 546.447 100.8C546.447 102.4 545.994 103.867 545.087 105.2C544.207 106.507 542.874 107.547 541.087 108.32C539.3 109.093 537.127 109.48 534.567 109.48ZM555.284 86.28H546.324V81H570.724V86.28H561.764V109H555.284V86.28ZM27.8 135.2V142.6H40.76V147.8H27.8V158H21.32V130H42.48V135.2H27.8ZM59.1534 158.48C56.2468 158.48 53.6201 157.853 51.2734 156.6C48.9534 155.347 47.1268 153.627 45.7934 151.44C44.4868 149.227 43.8334 146.747 43.8334 144C43.8334 141.253 44.4868 138.787 45.7934 136.6C47.1268 134.387 48.9534 132.653 51.2734 131.4C53.6201 130.147 56.2468 129.52 59.1534 129.52C62.0601 129.52 64.6734 130.147 66.9934 131.4C69.3134 132.653 71.1401 134.387 72.4734 136.6C73.8068 138.787 74.4734 141.253 74.4734 144C74.4734 146.747 73.8068 149.227 72.4734 151.44C71.1401 153.627 69.3134 155.347 66.9934 156.6C64.6734 157.853 62.0601 158.48 59.1534 158.48ZM59.1534 152.96C60.8068 152.96 62.3001 152.587 63.6334 151.84C64.9668 151.067 66.0068 150 66.7534 148.64C67.5268 147.28 67.9134 145.733 67.9134 144C67.9134 142.267 67.5268 140.72 66.7534 139.36C66.0068 138 64.9668 136.947 63.6334 136.2C62.3001 135.427 60.8068 135.04 59.1534 135.04C57.5001 135.04 56.0068 135.427 54.6734 136.2C53.3401 136.947 52.2868 138 51.5134 139.36C50.7668 140.72 50.3934 142.267 50.3934 144C50.3934 145.733 50.7668 147.28 51.5134 148.64C52.2868 150 53.3401 151.067 54.6734 151.84C56.0068 152.587 57.5001 152.96 59.1534 152.96ZM96.1834 158L90.7834 150.2H90.4634H84.8234V158H78.3434V130H90.4634C92.9434 130 95.0901 130.413 96.9034 131.24C98.7434 132.067 100.157 133.24 101.143 134.76C102.13 136.28 102.623 138.08 102.623 140.16C102.623 142.24 102.117 144.04 101.103 145.56C100.117 147.053 98.7034 148.2 96.8634 149L103.143 158H96.1834ZM96.0634 140.16C96.0634 138.587 95.5568 137.387 94.5434 136.56C93.5301 135.707 92.0501 135.28 90.1034 135.28H84.8234V145.04H90.1034C92.0501 145.04 93.5301 144.613 94.5434 143.76C95.5568 142.907 96.0634 141.707 96.0634 140.16ZM130.646 158.48C127.739 158.48 125.112 157.853 122.766 156.6C120.446 155.347 118.619 153.627 117.286 151.44C115.979 149.227 115.326 146.747 115.326 144C115.326 141.253 115.979 138.787 117.286 136.6C118.619 134.387 120.446 132.653 122.766 131.4C125.112 130.147 127.739 129.52 130.646 129.52C133.552 129.52 136.166 130.147 138.486 131.4C140.806 132.653 142.632 134.387 143.966 136.6C145.299 138.787 145.966 141.253 145.966 144C145.966 146.747 145.299 149.227 143.966 151.44C142.632 153.627 140.806 155.347 138.486 156.6C136.166 157.853 133.552 158.48 130.646 158.48ZM130.646 152.96C132.299 152.96 133.792 152.587 135.126 151.84C136.459 151.067 137.499 150 138.246 148.64C139.019 147.28 139.406 145.733 139.406 144C139.406 142.267 139.019 140.72 138.246 139.36C137.499 138 136.459 136.947 135.126 136.2C133.792 135.427 132.299 135.04 130.646 135.04C128.992 135.04 127.499 135.427 126.166 136.2C124.832 136.947 123.779 138 123.006 139.36C122.259 140.72 121.886 142.267 121.886 144C121.886 145.733 122.259 147.28 123.006 148.64C123.779 150 124.832 151.067 126.166 151.84C127.499 152.587 128.992 152.96 130.646 152.96ZM155.245 135.28H146.285V130H170.685V135.28H161.725V158H155.245V135.28ZM198.852 130V158H192.372V146.52H179.652V158H173.172V130H179.652V141.04H192.372V130H198.852ZM226.156 152.8V158H204.476V130H225.636V135.2H210.916V141.28H223.916V146.32H210.916V152.8H226.156ZM248.152 158L242.752 150.2H242.432H236.792V158H230.312V130H242.432C244.912 130 247.059 130.413 248.872 131.24C250.712 132.067 252.126 133.24 253.112 134.76C254.099 136.28 254.592 138.08 254.592 140.16C254.592 142.24 254.086 144.04 253.072 145.56C252.086 147.053 250.672 148.2 248.832 149L255.112 158H248.152ZM248.032 140.16C248.032 138.587 247.526 137.387 246.512 136.56C245.499 135.707 244.019 135.28 242.072 135.28H236.792V145.04H242.072C244.019 145.04 245.499 144.613 246.512 143.76C247.526 142.907 248.032 141.707 248.032 140.16ZM267.926 158.48C265.713 158.48 263.566 158.187 261.486 157.6C259.433 156.987 257.78 156.2 256.526 155.24L258.726 150.36C259.926 151.24 261.353 151.947 263.006 152.48C264.66 153.013 266.313 153.28 267.966 153.28C269.806 153.28 271.166 153.013 272.046 152.48C272.926 151.92 273.366 151.187 273.366 150.28C273.366 149.613 273.1 149.067 272.566 148.64C272.06 148.187 271.393 147.827 270.566 147.56C269.766 147.293 268.673 147 267.286 146.68C265.153 146.173 263.406 145.667 262.046 145.16C260.686 144.653 259.513 143.84 258.526 142.72C257.566 141.6 257.086 140.107 257.086 138.24C257.086 136.613 257.526 135.147 258.406 133.84C259.286 132.507 260.606 131.453 262.366 130.68C264.153 129.907 266.326 129.52 268.886 129.52C270.673 129.52 272.42 129.733 274.126 130.16C275.833 130.587 277.326 131.2 278.606 132L276.606 136.92C274.02 135.453 271.433 134.72 268.846 134.72C267.033 134.72 265.686 135.013 264.806 135.6C263.953 136.187 263.526 136.96 263.526 137.92C263.526 138.88 264.02 139.6 265.006 140.08C266.02 140.533 267.553 140.987 269.606 141.44C271.74 141.947 273.486 142.453 274.846 142.96C276.206 143.467 277.366 144.267 278.326 145.36C279.313 146.453 279.806 147.933 279.806 149.8C279.806 151.4 279.353 152.867 278.446 154.2C277.566 155.507 276.233 156.547 274.446 157.32C272.66 158.093 270.486 158.48 267.926 158.48Z" fill="white"/>
<path d="M30.14 208.12C29.1 208.12 28.1 207.953 27.14 207.62C26.1933 207.287 25.46 206.847 24.94 206.3L25.52 205.16C26.0267 205.667 26.7 206.08 27.54 206.4C28.38 206.707 29.2467 206.86 30.14 206.86C31.3933 206.86 32.3333 206.633 32.96 206.18C33.5867 205.713 33.9 205.113 33.9 204.38C33.9 203.82 33.7267 203.373 33.38 203.04C33.0467 202.707 32.6333 202.453 32.14 202.28C31.6467 202.093 30.96 201.893 30.08 201.68C29.0267 201.413 28.1867 201.16 27.56 200.92C26.9333 200.667 26.3933 200.287 25.94 199.78C25.5 199.273 25.28 198.587 25.28 197.72C25.28 197.013 25.4667 196.373 25.84 195.8C26.2133 195.213 26.7867 194.747 27.56 194.4C28.3333 194.053 29.2933 193.88 30.44 193.88C31.24 193.88 32.02 193.993 32.78 194.22C33.5533 194.433 34.22 194.733 34.78 195.12L34.28 196.3C33.6933 195.913 33.0667 195.627 32.4 195.44C31.7333 195.24 31.08 195.14 30.44 195.14C29.2133 195.14 28.2867 195.38 27.66 195.86C27.0467 196.327 26.74 196.933 26.74 197.68C26.74 198.24 26.9067 198.693 27.24 199.04C27.5867 199.373 28.0133 199.633 28.52 199.82C29.04 199.993 29.7333 200.187 30.6 200.4C31.6267 200.653 32.4533 200.907 33.08 201.16C33.72 201.4 34.26 201.773 34.7 202.28C35.14 202.773 35.36 203.447 35.36 204.3C35.36 205.007 35.1667 205.653 34.78 206.24C34.4067 206.813 33.8267 207.273 33.04 207.62C32.2533 207.953 31.2867 208.12 30.14 208.12ZM43.2047 197.4C44.1914 197.4 45.0847 197.627 45.8847 198.08C46.6847 198.52 47.3114 199.147 47.7647 199.96C48.218 200.773 48.4447 201.7 48.4447 202.74C48.4447 203.793 48.218 204.727 47.7647 205.54C47.3114 206.353 46.6847 206.987 45.8847 207.44C45.098 207.88 44.2047 208.1 43.2047 208.1C42.3514 208.1 41.578 207.927 40.8847 207.58C40.2047 207.22 39.6447 206.7 39.2047 206.02V211.88H37.7847V197.48H39.1447V199.56C39.5714 198.867 40.1314 198.333 40.8247 197.96C41.5314 197.587 42.3247 197.4 43.2047 197.4ZM43.1047 206.84C43.838 206.84 44.5047 206.673 45.1047 206.34C45.7047 205.993 46.1714 205.507 46.5047 204.88C46.8514 204.253 47.0247 203.54 47.0247 202.74C47.0247 201.94 46.8514 201.233 46.5047 200.62C46.1714 199.993 45.7047 199.507 45.1047 199.16C44.5047 198.813 43.838 198.64 43.1047 198.64C42.358 198.64 41.6847 198.813 41.0847 199.16C40.498 199.507 40.0314 199.993 39.6847 200.62C39.3514 201.233 39.1847 201.94 39.1847 202.74C39.1847 203.54 39.3514 204.253 39.6847 204.88C40.0314 205.507 40.498 205.993 41.0847 206.34C41.6847 206.673 42.358 206.84 43.1047 206.84ZM52.1994 199.54C52.5327 198.833 53.026 198.3 53.6794 197.94C54.346 197.58 55.166 197.4 56.1394 197.4V198.78L55.7994 198.76C54.6927 198.76 53.826 199.1 53.1994 199.78C52.5727 200.46 52.2594 201.413 52.2594 202.64V208H50.8394V197.48H52.1994V199.54ZM67.2728 203.18H58.4728C58.5528 204.273 58.9728 205.16 59.7328 205.84C60.4928 206.507 61.4528 206.84 62.6128 206.84C63.2661 206.84 63.8661 206.727 64.4128 206.5C64.9595 206.26 65.4328 205.913 65.8328 205.46L66.6328 206.38C66.1661 206.94 65.5795 207.367 64.8728 207.66C64.1795 207.953 63.4128 208.1 62.5728 208.1C61.4928 208.1 60.5328 207.873 59.6928 207.42C58.8661 206.953 58.2195 206.313 57.7528 205.5C57.2861 204.687 57.0528 203.767 57.0528 202.74C57.0528 201.713 57.2728 200.793 57.7128 199.98C58.1661 199.167 58.7795 198.533 59.5528 198.08C60.3395 197.627 61.2195 197.4 62.1928 197.4C63.1661 197.4 64.0395 197.627 64.8128 198.08C65.5861 198.533 66.1928 199.167 66.6328 199.98C67.0728 200.78 67.2928 201.7 67.2928 202.74L67.2728 203.18ZM62.1928 198.62C61.1795 198.62 60.3261 198.947 59.6328 199.6C58.9528 200.24 58.5661 201.08 58.4728 202.12H65.9328C65.8395 201.08 65.4461 200.24 64.7528 199.6C64.0728 198.947 63.2195 198.62 62.1928 198.62ZM73.0702 197.4C74.4435 197.4 75.4968 197.747 76.2302 198.44C76.9635 199.12 77.3302 200.133 77.3302 201.48V208H75.9702V206.36C75.6502 206.907 75.1768 207.333 74.5502 207.64C73.9368 207.947 73.2035 208.1 72.3502 208.1C71.1768 208.1 70.2435 207.82 69.5502 207.26C68.8568 206.7 68.5102 205.96 68.5102 205.04C68.5102 204.147 68.8302 203.427 69.4702 202.88C70.1235 202.333 71.1568 202.06 72.5702 202.06H75.9102V201.42C75.9102 200.513 75.6568 199.827 75.1502 199.36C74.6435 198.88 73.9035 198.64 72.9302 198.64C72.2635 198.64 71.6235 198.753 71.0102 198.98C70.3968 199.193 69.8702 199.493 69.4302 199.88L68.7902 198.82C69.3235 198.367 69.9635 198.02 70.7102 197.78C71.4568 197.527 72.2435 197.4 73.0702 197.4ZM72.5702 206.98C73.3702 206.98 74.0568 206.8 74.6302 206.44C75.2035 206.067 75.6302 205.533 75.9102 204.84V203.12H72.6102C70.8102 203.12 69.9102 203.747 69.9102 205C69.9102 205.613 70.1435 206.1 70.6102 206.46C71.0768 206.807 71.7302 206.98 72.5702 206.98ZM90.3261 193.16V208H88.9661V205.92C88.5394 206.627 87.9728 207.167 87.2661 207.54C86.5728 207.913 85.7861 208.1 84.9061 208.1C83.9194 208.1 83.0261 207.873 82.2261 207.42C81.4261 206.967 80.7994 206.333 80.3461 205.52C79.8928 204.707 79.6661 203.78 79.6661 202.74C79.6661 201.7 79.8928 200.773 80.3461 199.96C80.7994 199.147 81.4261 198.52 82.2261 198.08C83.0261 197.627 83.9194 197.4 84.9061 197.4C85.7594 197.4 86.5261 197.58 87.2061 197.94C87.8994 198.287 88.4661 198.8 88.9061 199.48V193.16H90.3261ZM85.0261 206.84C85.7594 206.84 86.4194 206.673 87.0061 206.34C87.6061 205.993 88.0728 205.507 88.4061 204.88C88.7528 204.253 88.9261 203.54 88.9261 202.74C88.9261 201.94 88.7528 201.227 88.4061 200.6C88.0728 199.973 87.6061 199.493 87.0061 199.16C86.4194 198.813 85.7594 198.64 85.0261 198.64C84.2794 198.64 83.6061 198.813 83.0061 199.16C82.4194 199.493 81.9528 199.973 81.6061 200.6C81.2728 201.227 81.1061 201.94 81.1061 202.74C81.1061 203.54 81.2728 204.253 81.6061 204.88C81.9528 205.507 82.4194 205.993 83.0061 206.34C83.6061 206.673 84.2794 206.84 85.0261 206.84ZM93.7808 197.48H95.2008V208H93.7808V197.48ZM94.5008 195.18C94.2074 195.18 93.9608 195.08 93.7608 194.88C93.5608 194.68 93.4608 194.44 93.4608 194.16C93.4608 193.893 93.5608 193.66 93.7608 193.46C93.9608 193.26 94.2074 193.16 94.5008 193.16C94.7941 193.16 95.0408 193.26 95.2408 193.46C95.4408 193.647 95.5408 193.873 95.5408 194.14C95.5408 194.433 95.4408 194.68 95.2408 194.88C95.0408 195.08 94.7941 195.18 94.5008 195.18ZM104.012 197.4C105.332 197.4 106.379 197.787 107.152 198.56C107.939 199.32 108.332 200.433 108.332 201.9V208H106.912V202.04C106.912 200.947 106.639 200.113 106.092 199.54C105.545 198.967 104.765 198.68 103.752 198.68C102.619 198.68 101.719 199.02 101.052 199.7C100.399 200.367 100.072 201.293 100.072 202.48V208H98.6519V197.48H100.012V199.42C100.399 198.78 100.932 198.287 101.612 197.94C102.305 197.58 103.105 197.4 104.012 197.4ZM121.466 197.48V206.72C121.466 208.507 121.026 209.827 120.146 210.68C119.279 211.547 117.966 211.98 116.206 211.98C115.233 211.98 114.306 211.833 113.426 211.54C112.559 211.26 111.853 210.867 111.306 210.36L112.026 209.28C112.533 209.733 113.146 210.087 113.866 210.34C114.599 210.593 115.366 210.72 116.166 210.72C117.499 210.72 118.479 210.407 119.106 209.78C119.733 209.167 120.046 208.207 120.046 206.9V205.56C119.606 206.227 119.026 206.733 118.306 207.08C117.599 207.427 116.813 207.6 115.946 207.6C114.959 207.6 114.059 207.387 113.246 206.96C112.446 206.52 111.813 205.913 111.346 205.14C110.893 204.353 110.666 203.467 110.666 202.48C110.666 201.493 110.893 200.613 111.346 199.84C111.813 199.067 112.446 198.467 113.246 198.04C114.046 197.613 114.946 197.4 115.946 197.4C116.839 197.4 117.646 197.58 118.366 197.94C119.086 198.3 119.666 198.82 120.106 199.5V197.48H121.466ZM116.086 206.34C116.846 206.34 117.533 206.18 118.146 205.86C118.759 205.527 119.233 205.067 119.566 204.48C119.913 203.893 120.086 203.227 120.086 202.48C120.086 201.733 119.913 201.073 119.566 200.5C119.233 199.913 118.759 199.46 118.146 199.14C117.546 198.807 116.859 198.64 116.086 198.64C115.326 198.64 114.639 198.8 114.026 199.12C113.426 199.44 112.953 199.893 112.606 200.48C112.273 201.067 112.106 201.733 112.106 202.48C112.106 203.227 112.273 203.893 112.606 204.48C112.953 205.067 113.426 205.527 114.026 205.86C114.639 206.18 115.326 206.34 116.086 206.34ZM135.211 207.36C134.945 207.6 134.611 207.787 134.211 207.92C133.825 208.04 133.418 208.1 132.991 208.1C132.005 208.1 131.245 207.833 130.711 207.3C130.178 206.767 129.911 206.013 129.911 205.04V198.68H128.031V197.48H129.911V195.18H131.331V197.48H134.531V198.68H131.331V204.96C131.331 205.587 131.485 206.067 131.791 206.4C132.111 206.72 132.565 206.88 133.151 206.88C133.445 206.88 133.725 206.833 133.991 206.74C134.271 206.647 134.511 206.513 134.711 206.34L135.211 207.36ZM142.656 197.4C143.976 197.4 145.023 197.787 145.796 198.56C146.583 199.32 146.976 200.433 146.976 201.9V208H145.556V202.04C145.556 200.947 145.283 200.113 144.736 199.54C144.19 198.967 143.41 198.68 142.396 198.68C141.263 198.68 140.363 199.02 139.696 199.7C139.043 200.367 138.716 201.293 138.716 202.48V208H137.296V193.16H138.716V199.32C139.103 198.707 139.636 198.233 140.316 197.9C140.996 197.567 141.776 197.4 142.656 197.4ZM159.531 203.18H150.731C150.811 204.273 151.231 205.16 151.991 205.84C152.751 206.507 153.711 206.84 154.871 206.84C155.524 206.84 156.124 206.727 156.671 206.5C157.217 206.26 157.691 205.913 158.091 205.46L158.891 206.38C158.424 206.94 157.837 207.367 157.131 207.66C156.437 207.953 155.671 208.1 154.831 208.1C153.751 208.1 152.791 207.873 151.951 207.42C151.124 206.953 150.477 206.313 150.011 205.5C149.544 204.687 149.311 203.767 149.311 202.74C149.311 201.713 149.531 200.793 149.971 199.98C150.424 199.167 151.037 198.533 151.811 198.08C152.597 197.627 153.477 197.4 154.451 197.4C155.424 197.4 156.297 197.627 157.071 198.08C157.844 198.533 158.451 199.167 158.891 199.98C159.331 200.78 159.551 201.7 159.551 202.74L159.531 203.18ZM154.451 198.62C153.437 198.62 152.584 198.947 151.891 199.6C151.211 200.24 150.824 201.08 150.731 202.12H158.191C158.097 201.08 157.704 200.24 157.011 199.6C156.331 198.947 155.477 198.62 154.451 198.62ZM179.795 197.4C181.115 197.4 182.149 197.78 182.895 198.54C183.655 199.3 184.035 200.42 184.035 201.9V208H182.615V202.04C182.615 200.947 182.349 200.113 181.815 199.54C181.295 198.967 180.555 198.68 179.595 198.68C178.502 198.68 177.642 199.02 177.015 199.7C176.389 200.367 176.075 201.293 176.075 202.48V208H174.655V202.04C174.655 200.947 174.389 200.113 173.855 199.54C173.335 198.967 172.589 198.68 171.615 198.68C170.535 198.68 169.675 199.02 169.035 199.7C168.409 200.367 168.095 201.293 168.095 202.48V208H166.675V197.48H168.035V199.4C168.409 198.76 168.929 198.267 169.595 197.92C170.262 197.573 171.029 197.4 171.895 197.4C172.775 197.4 173.535 197.587 174.175 197.96C174.829 198.333 175.315 198.887 175.635 199.62C176.022 198.927 176.575 198.387 177.295 198C178.029 197.6 178.862 197.4 179.795 197.4ZM196.585 203.18H187.785C187.865 204.273 188.285 205.16 189.045 205.84C189.805 206.507 190.765 206.84 191.925 206.84C192.579 206.84 193.179 206.727 193.725 206.5C194.272 206.26 194.745 205.913 195.145 205.46L195.945 206.38C195.479 206.94 194.892 207.367 194.185 207.66C193.492 207.953 192.725 208.1 191.885 208.1C190.805 208.1 189.845 207.873 189.005 207.42C188.179 206.953 187.532 206.313 187.065 205.5C186.599 204.687 186.365 203.767 186.365 202.74C186.365 201.713 186.585 200.793 187.025 199.98C187.479 199.167 188.092 198.533 188.865 198.08C189.652 197.627 190.532 197.4 191.505 197.4C192.479 197.4 193.352 197.627 194.125 198.08C194.899 198.533 195.505 199.167 195.945 199.98C196.385 200.78 196.605 201.7 196.605 202.74L196.585 203.18ZM191.505 198.62C190.492 198.62 189.639 198.947 188.945 199.6C188.265 200.24 187.879 201.08 187.785 202.12H195.245C195.152 201.08 194.759 200.24 194.065 199.6C193.385 198.947 192.532 198.62 191.505 198.62ZM201.816 208.1C200.962 208.1 200.142 207.98 199.356 207.74C198.582 207.487 197.976 207.173 197.536 206.8L198.176 205.68C198.616 206.027 199.169 206.313 199.836 206.54C200.502 206.753 201.196 206.86 201.916 206.86C202.876 206.86 203.582 206.713 204.036 206.42C204.502 206.113 204.736 205.687 204.736 205.14C204.736 204.753 204.609 204.453 204.356 204.24C204.102 204.013 203.782 203.847 203.396 203.74C203.009 203.62 202.496 203.507 201.856 203.4C201.002 203.24 200.316 203.08 199.796 202.92C199.276 202.747 198.829 202.46 198.456 202.06C198.096 201.66 197.916 201.107 197.916 200.4C197.916 199.52 198.282 198.8 199.016 198.24C199.749 197.68 200.769 197.4 202.076 197.4C202.756 197.4 203.436 197.493 204.116 197.68C204.796 197.853 205.356 198.087 205.796 198.38L205.176 199.52C204.309 198.92 203.276 198.62 202.076 198.62C201.169 198.62 200.482 198.78 200.016 199.1C199.562 199.42 199.336 199.84 199.336 200.36C199.336 200.76 199.462 201.08 199.716 201.32C199.982 201.56 200.309 201.74 200.696 201.86C201.082 201.967 201.616 202.08 202.296 202.2C203.136 202.36 203.809 202.52 204.316 202.68C204.822 202.84 205.256 203.113 205.616 203.5C205.976 203.887 206.156 204.42 206.156 205.1C206.156 206.02 205.769 206.753 204.996 207.3C204.236 207.833 203.176 208.1 201.816 208.1ZM211.101 208.1C210.247 208.1 209.427 207.98 208.641 207.74C207.867 207.487 207.261 207.173 206.821 206.8L207.461 205.68C207.901 206.027 208.454 206.313 209.121 206.54C209.787 206.753 210.481 206.86 211.201 206.86C212.161 206.86 212.867 206.713 213.321 206.42C213.787 206.113 214.021 205.687 214.021 205.14C214.021 204.753 213.894 204.453 213.641 204.24C213.387 204.013 213.067 203.847 212.681 203.74C212.294 203.62 211.781 203.507 211.141 203.4C210.287 203.24 209.601 203.08 209.081 202.92C208.561 202.747 208.114 202.46 207.741 202.06C207.381 201.66 207.201 201.107 207.201 200.4C207.201 199.52 207.567 198.8 208.301 198.24C209.034 197.68 210.054 197.4 211.361 197.4C212.041 197.4 212.721 197.493 213.401 197.68C214.081 197.853 214.641 198.087 215.081 198.38L214.461 199.52C213.594 198.92 212.561 198.62 211.361 198.62C210.454 198.62 209.767 198.78 209.301 199.1C208.847 199.42 208.621 199.84 208.621 200.36C208.621 200.76 208.747 201.08 209.001 201.32C209.267 201.56 209.594 201.74 209.981 201.86C210.367 201.967 210.901 202.08 211.581 202.2C212.421 202.36 213.094 202.52 213.601 202.68C214.107 202.84 214.541 203.113 214.901 203.5C215.261 203.887 215.441 204.42 215.441 205.1C215.441 206.02 215.054 206.753 214.281 207.3C213.521 207.833 212.461 208.1 211.101 208.1ZM221.246 197.4C222.619 197.4 223.673 197.747 224.406 198.44C225.139 199.12 225.506 200.133 225.506 201.48V208H224.146V206.36C223.826 206.907 223.353 207.333 222.726 207.64C222.113 207.947 221.379 208.1 220.526 208.1C219.353 208.1 218.419 207.82 217.726 207.26C217.033 206.7 216.686 205.96 216.686 205.04C216.686 204.147 217.006 203.427 217.646 202.88C218.299 202.333 219.333 202.06 220.746 202.06H224.086V201.42C224.086 200.513 223.833 199.827 223.326 199.36C222.819 198.88 222.079 198.64 221.106 198.64C220.439 198.64 219.799 198.753 219.186 198.98C218.573 199.193 218.046 199.493 217.606 199.88L216.966 198.82C217.499 198.367 218.139 198.02 218.886 197.78C219.633 197.527 220.419 197.4 221.246 197.4ZM220.746 206.98C221.546 206.98 222.233 206.8 222.806 206.44C223.379 206.067 223.806 205.533 224.086 204.84V203.12H220.786C218.986 203.12 218.086 203.747 218.086 205C218.086 205.613 218.319 206.1 218.786 206.46C219.253 206.807 219.906 206.98 220.746 206.98ZM238.642 197.48V206.72C238.642 208.507 238.202 209.827 237.322 210.68C236.455 211.547 235.142 211.98 233.382 211.98C232.409 211.98 231.482 211.833 230.602 211.54C229.735 211.26 229.029 210.867 228.482 210.36L229.202 209.28C229.709 209.733 230.322 210.087 231.042 210.34C231.775 210.593 232.542 210.72 233.342 210.72C234.675 210.72 235.655 210.407 236.282 209.78C236.909 209.167 237.222 208.207 237.222 206.9V205.56C236.782 206.227 236.202 206.733 235.482 207.08C234.775 207.427 233.989 207.6 233.122 207.6C232.135 207.6 231.235 207.387 230.422 206.96C229.622 206.52 228.989 205.913 228.522 205.14C228.069 204.353 227.842 203.467 227.842 202.48C227.842 201.493 228.069 200.613 228.522 199.84C228.989 199.067 229.622 198.467 230.422 198.04C231.222 197.613 232.122 197.4 233.122 197.4C234.015 197.4 234.822 197.58 235.542 197.94C236.262 198.3 236.842 198.82 237.282 199.5V197.48H238.642ZM233.262 206.34C234.022 206.34 234.709 206.18 235.322 205.86C235.935 205.527 236.409 205.067 236.742 204.48C237.089 203.893 237.262 203.227 237.262 202.48C237.262 201.733 237.089 201.073 236.742 200.5C236.409 199.913 235.935 199.46 235.322 199.14C234.722 198.807 234.035 198.64 233.262 198.64C232.502 198.64 231.815 198.8 231.202 199.12C230.602 199.44 230.129 199.893 229.782 200.48C229.449 201.067 229.282 201.733 229.282 202.48C229.282 203.227 229.449 203.893 229.782 204.48C230.129 205.067 230.602 205.527 231.202 205.86C231.815 206.18 232.502 206.34 233.262 206.34ZM251.273 203.18H242.473C242.553 204.273 242.973 205.16 243.733 205.84C244.493 206.507 245.453 206.84 246.613 206.84C247.266 206.84 247.866 206.727 248.413 206.5C248.959 206.26 249.433 205.913 249.833 205.46L250.633 206.38C250.166 206.94 249.579 207.367 248.873 207.66C248.179 207.953 247.413 208.1 246.573 208.1C245.493 208.1 244.533 207.873 243.693 207.42C242.866 206.953 242.219 206.313 241.753 205.5C241.286 204.687 241.053 203.767 241.053 202.74C241.053 201.713 241.273 200.793 241.713 199.98C242.166 199.167 242.779 198.533 243.553 198.08C244.339 197.627 245.219 197.4 246.193 197.4C247.166 197.4 248.039 197.627 248.813 198.08C249.586 198.533 250.193 199.167 250.633 199.98C251.073 200.78 251.293 201.7 251.293 202.74L251.273 203.18ZM246.193 198.62C245.179 198.62 244.326 198.947 243.633 199.6C242.953 200.24 242.566 201.08 242.473 202.12H249.933C249.839 201.08 249.446 200.24 248.753 199.6C248.073 198.947 247.219 198.62 246.193 198.62ZM263.958 207.36C263.691 207.6 263.358 207.787 262.958 207.92C262.571 208.04 262.164 208.1 261.738 208.1C260.751 208.1 259.991 207.833 259.458 207.3C258.924 206.767 258.658 206.013 258.658 205.04V198.68H256.778V197.48H258.658V195.18H260.078V197.48H263.278V198.68H260.078V204.96C260.078 205.587 260.231 206.067 260.538 206.4C260.858 206.72 261.311 206.88 261.898 206.88C262.191 206.88 262.471 206.833 262.738 206.74C263.018 206.647 263.258 206.513 263.458 206.34L263.958 207.36ZM271.403 197.4C272.723 197.4 273.769 197.787 274.543 198.56C275.329 199.32 275.723 200.433 275.723 201.9V208H274.303V202.04C274.303 200.947 274.029 200.113 273.483 199.54C272.936 198.967 272.156 198.68 271.143 198.68C270.009 198.68 269.109 199.02 268.443 199.7C267.789 200.367 267.463 201.293 267.463 202.48V208H266.043V193.16H267.463V199.32C267.849 198.707 268.383 198.233 269.062 197.9C269.743 197.567 270.523 197.4 271.403 197.4ZM282.758 197.4C284.131 197.4 285.184 197.747 285.918 198.44C286.651 199.12 287.018 200.133 287.018 201.48V208H285.658V206.36C285.338 206.907 284.864 207.333 284.238 207.64C283.624 207.947 282.891 208.1 282.038 208.1C280.864 208.1 279.931 207.82 279.238 207.26C278.544 206.7 278.198 205.96 278.198 205.04C278.198 204.147 278.518 203.427 279.158 202.88C279.811 202.333 280.844 202.06 282.258 202.06H285.598V201.42C285.598 200.513 285.344 199.827 284.838 199.36C284.331 198.88 283.591 198.64 282.618 198.64C281.951 198.64 281.311 198.753 280.698 198.98C280.084 199.193 279.558 199.493 279.118 199.88L278.478 198.82C279.011 198.367 279.651 198.02 280.398 197.78C281.144 197.527 281.931 197.4 282.758 197.4ZM282.258 206.98C283.058 206.98 283.744 206.8 284.318 206.44C284.891 206.067 285.318 205.533 285.598 204.84V203.12H282.298C280.498 203.12 279.598 203.747 279.598 205C279.598 205.613 279.831 206.1 280.298 206.46C280.764 206.807 281.418 206.98 282.258 206.98ZM295.915 207.36C295.648 207.6 295.315 207.787 294.915 207.92C294.528 208.04 294.121 208.1 293.695 208.1C292.708 208.1 291.948 207.833 291.415 207.3C290.881 206.767 290.615 206.013 290.615 205.04V198.68H288.735V197.48H290.615V195.18H292.035V197.48H295.235V198.68H292.035V204.96C292.035 205.587 292.188 206.067 292.495 206.4C292.815 206.72 293.268 206.88 293.855 206.88C294.148 206.88 294.428 206.833 294.695 206.74C294.975 206.647 295.215 206.513 295.415 206.34L295.915 207.36ZM307.094 208.1C306.054 208.1 305.121 207.873 304.294 207.42C303.481 206.967 302.841 206.333 302.374 205.52C301.907 204.693 301.674 203.767 301.674 202.74C301.674 201.713 301.907 200.793 302.374 199.98C302.841 199.167 303.481 198.533 304.294 198.08C305.121 197.627 306.054 197.4 307.094 197.4C308.001 197.4 308.807 197.58 309.514 197.94C310.234 198.287 310.801 198.8 311.214 199.48L310.154 200.2C309.807 199.68 309.367 199.293 308.834 199.04C308.301 198.773 307.721 198.64 307.094 198.64C306.334 198.64 305.647 198.813 305.034 199.16C304.434 199.493 303.961 199.973 303.614 200.6C303.281 201.227 303.114 201.94 303.114 202.74C303.114 203.553 303.281 204.273 303.614 204.9C303.961 205.513 304.434 205.993 305.034 206.34C305.647 206.673 306.334 206.84 307.094 206.84C307.721 206.84 308.301 206.713 308.834 206.46C309.367 206.207 309.807 205.82 310.154 205.3L311.214 206.02C310.801 206.7 310.234 207.22 309.514 207.58C308.794 207.927 307.987 208.1 307.094 208.1ZM318.707 197.4C320.027 197.4 321.074 197.787 321.847 198.56C322.634 199.32 323.027 200.433 323.027 201.9V208H321.607V202.04C321.607 200.947 321.334 200.113 320.787 199.54C320.241 198.967 319.461 198.68 318.447 198.68C317.314 198.68 316.414 199.02 315.747 199.7C315.094 200.367 314.767 201.293 314.767 202.48V208H313.347V193.16H314.767V199.32C315.154 198.707 315.687 198.233 316.367 197.9C317.047 197.567 317.827 197.4 318.707 197.4ZM330.062 197.4C331.436 197.4 332.489 197.747 333.222 198.44C333.956 199.12 334.322 200.133 334.322 201.48V208H332.962V206.36C332.642 206.907 332.169 207.333 331.542 207.64C330.929 207.947 330.196 208.1 329.342 208.1C328.169 208.1 327.236 207.82 326.542 207.26C325.849 206.7 325.502 205.96 325.502 205.04C325.502 204.147 325.822 203.427 326.462 202.88C327.116 202.333 328.149 202.06 329.562 202.06H332.902V201.42C332.902 200.513 332.649 199.827 332.142 199.36C331.636 198.88 330.896 198.64 329.922 198.64C329.256 198.64 328.616 198.753 328.002 198.98C327.389 199.193 326.862 199.493 326.422 199.88L325.782 198.82C326.316 198.367 326.956 198.02 327.702 197.78C328.449 197.527 329.236 197.4 330.062 197.4ZM329.562 206.98C330.362 206.98 331.049 206.8 331.622 206.44C332.196 206.067 332.622 205.533 332.902 204.84V203.12H329.602C327.802 203.12 326.902 203.747 326.902 205C326.902 205.613 327.136 206.1 327.602 206.46C328.069 206.807 328.722 206.98 329.562 206.98ZM339.039 199.54C339.373 198.833 339.866 198.3 340.519 197.94C341.186 197.58 342.006 197.4 342.979 197.4V198.78L342.639 198.76C341.533 198.76 340.666 199.1 340.039 199.78C339.413 200.46 339.099 201.413 339.099 202.64V208H337.679V197.48H339.039V199.54ZM345.05 197.48H346.47V208H345.05V197.48ZM345.77 195.18C345.477 195.18 345.23 195.08 345.03 194.88C344.83 194.68 344.73 194.44 344.73 194.16C344.73 193.893 344.83 193.66 345.03 193.46C345.23 193.26 345.477 193.16 345.77 193.16C346.064 193.16 346.31 193.26 346.51 193.46C346.71 193.647 346.81 193.873 346.81 194.14C346.81 194.433 346.71 194.68 346.51 194.88C346.31 195.08 346.064 195.18 345.77 195.18ZM355.461 207.36C355.195 207.6 354.861 207.787 354.461 207.92C354.075 208.04 353.668 208.1 353.241 208.1C352.255 208.1 351.495 207.833 350.961 207.3C350.428 206.767 350.161 206.013 350.161 205.04V198.68H348.281V197.48H350.161V195.18H351.581V197.48H354.781V198.68H351.581V204.96C351.581 205.587 351.735 206.067 352.041 206.4C352.361 206.72 352.815 206.88 353.401 206.88C353.695 206.88 353.975 206.833 354.241 206.74C354.521 206.647 354.761 206.513 354.961 206.34L355.461 207.36ZM366.191 197.48L360.931 209.26C360.504 210.247 360.011 210.947 359.451 211.36C358.891 211.773 358.218 211.98 357.431 211.98C356.924 211.98 356.451 211.9 356.011 211.74C355.571 211.58 355.191 211.34 354.871 211.02L355.531 209.96C356.064 210.493 356.704 210.76 357.451 210.76C357.931 210.76 358.338 210.627 358.671 210.36C359.018 210.093 359.338 209.64 359.631 209L360.091 207.98L355.391 197.48H356.871L360.831 206.42L364.791 197.48H366.191ZM372.425 197.48H373.845V208H372.425V197.48ZM373.145 195.18C372.852 195.18 372.605 195.08 372.405 194.88C372.205 194.68 372.105 194.44 372.105 194.16C372.105 193.893 372.205 193.66 372.405 193.46C372.605 193.26 372.852 193.16 373.145 193.16C373.439 193.16 373.685 193.26 373.885 193.46C374.085 193.647 374.185 193.873 374.185 194.14C374.185 194.433 374.085 194.68 373.885 194.88C373.685 195.08 373.439 195.18 373.145 195.18ZM380.116 208.1C379.263 208.1 378.443 207.98 377.656 207.74C376.883 207.487 376.276 207.173 375.836 206.8L376.476 205.68C376.916 206.027 377.47 206.313 378.136 206.54C378.803 206.753 379.496 206.86 380.216 206.86C381.176 206.86 381.883 206.713 382.336 206.42C382.803 206.113 383.036 205.687 383.036 205.14C383.036 204.753 382.91 204.453 382.656 204.24C382.403 204.013 382.083 203.847 381.696 203.74C381.31 203.62 380.796 203.507 380.156 203.4C379.303 203.24 378.616 203.08 378.096 202.92C377.576 202.747 377.13 202.46 376.756 202.06C376.396 201.66 376.216 201.107 376.216 200.4C376.216 199.52 376.583 198.8 377.316 198.24C378.05 197.68 379.07 197.4 380.376 197.4C381.056 197.4 381.736 197.493 382.416 197.68C383.096 197.853 383.656 198.087 384.096 198.38L383.476 199.52C382.61 198.92 381.576 198.62 380.376 198.62C379.47 198.62 378.783 198.78 378.316 199.1C377.863 199.42 377.636 199.84 377.636 200.36C377.636 200.76 377.763 201.08 378.016 201.32C378.283 201.56 378.61 201.74 378.996 201.86C379.383 201.967 379.916 202.08 380.596 202.2C381.436 202.36 382.11 202.52 382.616 202.68C383.123 202.84 383.556 203.113 383.916 203.5C384.276 203.887 384.456 204.42 384.456 205.1C384.456 206.02 384.07 206.753 383.296 207.3C382.536 207.833 381.476 208.1 380.116 208.1ZM396.676 197.4C397.996 197.4 399.043 197.787 399.816 198.56C400.603 199.32 400.996 200.433 400.996 201.9V208H399.576V202.04C399.576 200.947 399.303 200.113 398.756 199.54C398.209 198.967 397.429 198.68 396.416 198.68C395.283 198.68 394.383 199.02 393.716 199.7C393.063 200.367 392.736 201.293 392.736 202.48V208H391.316V197.48H392.676V199.42C393.063 198.78 393.596 198.287 394.276 197.94C394.969 197.58 395.769 197.4 396.676 197.4ZM408.69 208.1C407.677 208.1 406.763 207.873 405.95 207.42C405.137 206.953 404.497 206.313 404.03 205.5C403.563 204.687 403.33 203.767 403.33 202.74C403.33 201.713 403.563 200.793 404.03 199.98C404.497 199.167 405.137 198.533 405.95 198.08C406.763 197.627 407.677 197.4 408.69 197.4C409.703 197.4 410.617 197.627 411.43 198.08C412.243 198.533 412.877 199.167 413.33 199.98C413.797 200.793 414.03 201.713 414.03 202.74C414.03 203.767 413.797 204.687 413.33 205.5C412.877 206.313 412.243 206.953 411.43 207.42C410.617 207.873 409.703 208.1 408.69 208.1ZM408.69 206.84C409.437 206.84 410.103 206.673 410.69 206.34C411.29 205.993 411.757 205.507 412.09 204.88C412.423 204.253 412.59 203.54 412.59 202.74C412.59 201.94 412.423 201.227 412.09 200.6C411.757 199.973 411.29 199.493 410.69 199.16C410.103 198.813 409.437 198.64 408.69 198.64C407.943 198.64 407.27 198.813 406.67 199.16C406.083 199.493 405.617 199.973 405.27 200.6C404.937 201.227 404.77 201.94 404.77 202.74C404.77 203.54 404.937 204.253 405.27 204.88C405.617 205.507 406.083 205.993 406.67 206.34C407.27 206.673 407.943 206.84 408.69 206.84ZM421.969 207.36C421.703 207.6 421.369 207.787 420.969 207.92C420.583 208.04 420.176 208.1 419.749 208.1C418.763 208.1 418.003 207.833 417.469 207.3C416.936 206.767 416.669 206.013 416.669 205.04V198.68H414.789V197.48H416.669V195.18H418.089V197.48H421.289V198.68H418.089V204.96C418.089 205.587 418.243 206.067 418.549 206.4C418.869 206.72 419.323 206.88 419.909 206.88C420.203 206.88 420.483 206.833 420.749 206.74C421.029 206.647 421.269 206.513 421.469 206.34L421.969 207.36ZM432.469 197.4C433.842 197.4 434.895 197.747 435.629 198.44C436.362 199.12 436.729 200.133 436.729 201.48V208H435.369V206.36C435.049 206.907 434.575 207.333 433.949 207.64C433.335 207.947 432.602 208.1 431.749 208.1C430.575 208.1 429.642 207.82 428.949 207.26C428.255 206.7 427.909 205.96 427.909 205.04C427.909 204.147 428.229 203.427 428.869 202.88C429.522 202.333 430.555 202.06 431.969 202.06H435.309V201.42C435.309 200.513 435.055 199.827 434.549 199.36C434.042 198.88 433.302 198.64 432.329 198.64C431.662 198.64 431.022 198.753 430.409 198.98C429.795 199.193 429.269 199.493 428.829 199.88L428.189 198.82C428.722 198.367 429.362 198.02 430.109 197.78C430.855 197.527 431.642 197.4 432.469 197.4ZM431.969 206.98C432.769 206.98 433.455 206.8 434.029 206.44C434.602 206.067 435.029 205.533 435.309 204.84V203.12H432.009C430.209 203.12 429.309 203.747 429.309 205C429.309 205.613 429.542 206.1 430.009 206.46C430.475 206.807 431.129 206.98 431.969 206.98ZM447.64 208.1C446.787 208.1 445.967 207.98 445.18 207.74C444.407 207.487 443.8 207.173 443.36 206.8L444 205.68C444.44 206.027 444.993 206.313 445.66 206.54C446.327 206.753 447.02 206.86 447.74 206.86C448.7 206.86 449.407 206.713 449.86 206.42C450.327 206.113 450.56 205.687 450.56 205.14C450.56 204.753 450.433 204.453 450.18 204.24C449.927 204.013 449.607 203.847 449.22 203.74C448.833 203.62 448.32 203.507 447.68 203.4C446.827 203.24 446.14 203.08 445.62 202.92C445.1 202.747 444.653 202.46 444.28 202.06C443.92 201.66 443.74 201.107 443.74 200.4C443.74 199.52 444.107 198.8 444.84 198.24C445.573 197.68 446.593 197.4 447.9 197.4C448.58 197.4 449.26 197.493 449.94 197.68C450.62 197.853 451.18 198.087 451.62 198.38L451 199.52C450.133 198.92 449.1 198.62 447.9 198.62C446.993 198.62 446.307 198.78 445.84 199.1C445.387 199.42 445.16 199.84 445.16 200.36C445.16 200.76 445.287 201.08 445.54 201.32C445.807 201.56 446.133 201.74 446.52 201.86C446.907 201.967 447.44 202.08 448.12 202.2C448.96 202.36 449.633 202.52 450.14 202.68C450.647 202.84 451.08 203.113 451.44 203.5C451.8 203.887 451.98 204.42 451.98 205.1C451.98 206.02 451.593 206.753 450.82 207.3C450.06 207.833 449 208.1 447.64 208.1ZM463.265 203.18H454.465C454.545 204.273 454.965 205.16 455.725 205.84C456.485 206.507 457.445 206.84 458.605 206.84C459.258 206.84 459.858 206.727 460.405 206.5C460.952 206.26 461.425 205.913 461.825 205.46L462.625 206.38C462.158 206.94 461.572 207.367 460.865 207.66C460.172 207.953 459.405 208.1 458.565 208.1C457.485 208.1 456.525 207.873 455.685 207.42C454.858 206.953 454.212 206.313 453.745 205.5C453.278 204.687 453.045 203.767 453.045 202.74C453.045 201.713 453.265 200.793 453.705 199.98C454.158 199.167 454.772 198.533 455.545 198.08C456.332 197.627 457.212 197.4 458.185 197.4C459.158 197.4 460.032 197.627 460.805 198.08C461.578 198.533 462.185 199.167 462.625 199.98C463.065 200.78 463.285 201.7 463.285 202.74L463.265 203.18ZM458.185 198.62C457.172 198.62 456.318 198.947 455.625 199.6C454.945 200.24 454.558 201.08 454.465 202.12H461.925C461.832 201.08 461.438 200.24 460.745 199.6C460.065 198.947 459.212 198.62 458.185 198.62ZM467.035 199.54C467.369 198.833 467.862 198.3 468.515 197.94C469.182 197.58 470.002 197.4 470.975 197.4V198.78L470.635 198.76C469.529 198.76 468.662 199.1 468.035 199.78C467.409 200.46 467.095 201.413 467.095 202.64V208H465.675V197.48H467.035V199.54ZM482.336 197.48L477.656 208H476.196L471.536 197.48H473.016L476.956 206.44L480.936 197.48H482.336ZM483.835 197.48H485.255V208H483.835V197.48ZM484.555 195.18C484.262 195.18 484.015 195.08 483.815 194.88C483.615 194.68 483.515 194.44 483.515 194.16C483.515 193.893 483.615 193.66 483.815 193.46C484.015 193.26 484.262 193.16 484.555 193.16C484.849 193.16 485.095 193.26 485.295 193.46C485.495 193.647 485.595 193.873 485.595 194.14C485.595 194.433 485.495 194.68 485.295 194.88C485.095 195.08 484.849 195.18 484.555 195.18ZM493.067 208.1C492.027 208.1 491.093 207.873 490.267 207.42C489.453 206.967 488.813 206.333 488.347 205.52C487.88 204.693 487.647 203.767 487.647 202.74C487.647 201.713 487.88 200.793 488.347 199.98C488.813 199.167 489.453 198.533 490.267 198.08C491.093 197.627 492.027 197.4 493.067 197.4C493.973 197.4 494.78 197.58 495.487 197.94C496.207 198.287 496.773 198.8 497.187 199.48L496.127 200.2C495.78 199.68 495.34 199.293 494.807 199.04C494.273 198.773 493.693 198.64 493.067 198.64C492.307 198.64 491.62 198.813 491.007 199.16C490.407 199.493 489.933 199.973 489.587 200.6C489.253 201.227 489.087 201.94 489.087 202.74C489.087 203.553 489.253 204.273 489.587 204.9C489.933 205.513 490.407 205.993 491.007 206.34C491.62 206.673 492.307 206.84 493.067 206.84C493.693 206.84 494.273 206.713 494.807 206.46C495.34 206.207 495.78 205.82 496.127 205.3L497.187 206.02C496.773 206.7 496.207 207.22 495.487 207.58C494.767 207.927 493.96 208.1 493.067 208.1ZM508.46 203.18H499.66C499.74 204.273 500.16 205.16 500.92 205.84C501.68 206.507 502.64 206.84 503.8 206.84C504.454 206.84 505.054 206.727 505.6 206.5C506.147 206.26 506.62 205.913 507.02 205.46L507.82 206.38C507.354 206.94 506.767 207.367 506.06 207.66C505.367 207.953 504.6 208.1 503.76 208.1C502.68 208.1 501.72 207.873 500.88 207.42C500.054 206.953 499.407 206.313 498.94 205.5C498.474 204.687 498.24 203.767 498.24 202.74C498.24 201.713 498.46 200.793 498.9 199.98C499.354 199.167 499.967 198.533 500.74 198.08C501.527 197.627 502.407 197.4 503.38 197.4C504.354 197.4 505.227 197.627 506 198.08C506.774 198.533 507.38 199.167 507.82 199.98C508.26 200.78 508.48 201.7 508.48 202.74L508.46 203.18ZM503.38 198.62C502.367 198.62 501.514 198.947 500.82 199.6C500.14 200.24 499.754 201.08 499.66 202.12H507.12C507.027 201.08 506.634 200.24 505.94 199.6C505.26 198.947 504.407 198.62 503.38 198.62ZM511.031 205.92C511.337 205.92 511.591 206.027 511.791 206.24C511.991 206.44 512.091 206.693 512.091 207C512.091 207.16 512.064 207.333 512.011 207.52C511.971 207.707 511.904 207.92 511.811 208.16L510.971 210.92H510.011L510.691 208.02C510.477 207.953 510.304 207.833 510.171 207.66C510.037 207.473 509.971 207.253 509.971 207C509.971 206.693 510.071 206.44 510.271 206.24C510.471 206.027 510.724 205.92 511.031 205.92ZM524.763 197.4C525.75 197.4 526.643 197.627 527.443 198.08C528.243 198.52 528.87 199.147 529.323 199.96C529.777 200.773 530.003 201.7 530.003 202.74C530.003 203.78 529.777 204.707 529.323 205.52C528.87 206.333 528.243 206.967 527.443 207.42C526.643 207.873 525.75 208.1 524.763 208.1C523.883 208.1 523.09 207.913 522.383 207.54C521.69 207.167 521.13 206.627 520.703 205.92V208H519.343V193.16H520.763V199.48C521.203 198.8 521.763 198.287 522.443 197.94C523.137 197.58 523.91 197.4 524.763 197.4ZM524.663 206.84C525.397 206.84 526.063 206.673 526.663 206.34C527.263 205.993 527.73 205.507 528.063 204.88C528.41 204.253 528.583 203.54 528.583 202.74C528.583 201.94 528.41 201.227 528.063 200.6C527.73 199.973 527.263 199.493 526.663 199.16C526.063 198.813 525.397 198.64 524.663 198.64C523.917 198.64 523.243 198.813 522.643 199.16C522.057 199.493 521.59 199.973 521.243 200.6C520.91 201.227 520.743 201.94 520.743 202.74C520.743 203.54 520.91 204.253 521.243 204.88C521.59 205.507 522.057 205.993 522.643 206.34C523.243 206.673 523.917 206.84 524.663 206.84ZM541.878 197.48V208H540.518V206.08C540.145 206.72 539.631 207.22 538.978 207.58C538.325 207.927 537.578 208.1 536.738 208.1C535.365 208.1 534.278 207.72 533.478 206.96C532.691 206.187 532.298 205.06 532.298 203.58V197.48H533.718V203.44C533.718 204.547 533.991 205.387 534.538 205.96C535.085 206.533 535.865 206.82 536.878 206.82C537.985 206.82 538.858 206.487 539.498 205.82C540.138 205.14 540.458 204.2 540.458 203V197.48H541.878ZM550.895 207.36C550.628 207.6 550.295 207.787 549.895 207.92C549.508 208.04 549.102 208.1 548.675 208.1C547.688 208.1 546.928 207.833 546.395 207.3C545.862 206.767 545.595 206.013 545.595 205.04V198.68H543.715V197.48H545.595V195.18H547.015V197.48H550.215V198.68H547.015V204.96C547.015 205.587 547.168 206.067 547.475 206.4C547.795 206.72 548.248 206.88 548.835 206.88C549.128 206.88 549.408 206.833 549.675 206.74C549.955 206.647 550.195 206.513 550.395 206.34L550.895 207.36ZM561.394 197.4C562.768 197.4 563.821 197.747 564.554 198.44C565.288 199.12 565.654 200.133 565.654 201.48V208H564.294V206.36C563.974 206.907 563.501 207.333 562.874 207.64C562.261 207.947 561.528 208.1 560.674 208.1C559.501 208.1 558.568 207.82 557.874 207.26C557.181 206.7 556.834 205.96 556.834 205.04C556.834 204.147 557.154 203.427 557.794 202.88C558.448 202.333 559.481 202.06 560.894 202.06H564.234V201.42C564.234 200.513 563.981 199.827 563.474 199.36C562.968 198.88 562.228 198.64 561.254 198.64C560.588 198.64 559.948 198.753 559.334 198.98C558.721 199.193 558.194 199.493 557.754 199.88L557.114 198.82C557.648 198.367 558.288 198.02 559.034 197.78C559.781 197.527 560.568 197.4 561.394 197.4ZM560.894 206.98C561.694 206.98 562.381 206.8 562.954 206.44C563.528 206.067 563.954 205.533 564.234 204.84V203.12H560.934C559.134 203.12 558.234 203.747 558.234 205C558.234 205.613 558.468 206.1 558.934 206.46C559.401 206.807 560.054 206.98 560.894 206.98ZM586.866 197.4C588.186 197.4 589.219 197.78 589.966 198.54C590.726 199.3 591.106 200.42 591.106 201.9V208H589.686V202.04C589.686 200.947 589.419 200.113 588.886 199.54C588.366 198.967 587.626 198.68 586.666 198.68C585.572 198.68 584.712 199.02 584.086 199.7C583.459 200.367 583.146 201.293 583.146 202.48V208H581.726V202.04C581.726 200.947 581.459 200.113 580.926 199.54C580.406 198.967 579.659 198.68 578.686 198.68C577.606 198.68 576.746 199.02 576.106 199.7C575.479 200.367 575.166 201.293 575.166 202.48V208H573.746V197.48H575.106V199.4C575.479 198.76 575.999 198.267 576.666 197.92C577.332 197.573 578.099 197.4 578.966 197.4C579.846 197.4 580.606 197.587 581.246 197.96C581.899 198.333 582.386 198.887 582.706 199.62C583.092 198.927 583.646 198.387 584.366 198C585.099 197.6 585.932 197.4 586.866 197.4ZM598.137 197.4C599.51 197.4 600.563 197.747 601.297 198.44C602.03 199.12 602.397 200.133 602.397 201.48V208H601.037V206.36C600.717 206.907 600.243 207.333 599.617 207.64C599.003 207.947 598.27 208.1 597.417 208.1C596.243 208.1 595.31 207.82 594.617 207.26C593.923 206.7 593.577 205.96 593.577 205.04C593.577 204.147 593.897 203.427 594.537 202.88C595.19 202.333 596.223 202.06 597.637 202.06H600.977V201.42C600.977 200.513 600.723 199.827 600.217 199.36C599.71 198.88 598.97 198.64 597.997 198.64C597.33 198.64 596.69 198.753 596.077 198.98C595.463 199.193 594.937 199.493 594.497 199.88L593.857 198.82C594.39 198.367 595.03 198.02 595.777 197.78C596.523 197.527 597.31 197.4 598.137 197.4ZM597.637 206.98C598.437 206.98 599.123 206.8 599.697 206.44C600.27 206.067 600.697 205.533 600.977 204.84V203.12H597.677C595.877 203.12 594.977 203.747 594.977 205C594.977 205.613 595.21 206.1 595.677 206.46C596.143 206.807 596.797 206.98 597.637 206.98ZM611.113 197.4C612.433 197.4 613.48 197.787 614.253 198.56C615.04 199.32 615.433 200.433 615.433 201.9V208H614.013V202.04C614.013 200.947 613.74 200.113 613.193 199.54C612.647 198.967 611.867 198.68 610.853 198.68C609.72 198.68 608.82 199.02 608.153 199.7C607.5 200.367 607.173 201.293 607.173 202.48V208H605.753V197.48H607.113V199.42C607.5 198.78 608.033 198.287 608.713 197.94C609.407 197.58 610.207 197.4 611.113 197.4ZM628.428 193.16V208H627.068V205.92C626.641 206.627 626.074 207.167 625.368 207.54C624.674 207.913 623.888 208.1 623.008 208.1C622.021 208.1 621.128 207.873 620.328 207.42C619.528 206.967 618.901 206.333 618.448 205.52C617.994 204.707 617.768 203.78 617.768 202.74C617.768 201.7 617.994 200.773 618.448 199.96C618.901 199.147 619.528 198.52 620.328 198.08C621.128 197.627 622.021 197.4 623.008 197.4C623.861 197.4 624.628 197.58 625.308 197.94C626.001 198.287 626.568 198.8 627.008 199.48V193.16H628.428ZM623.128 206.84C623.861 206.84 624.521 206.673 625.108 206.34C625.708 205.993 626.174 205.507 626.508 204.88C626.854 204.253 627.028 203.54 627.028 202.74C627.028 201.94 626.854 201.227 626.508 200.6C626.174 199.973 625.708 199.493 625.108 199.16C624.521 198.813 623.861 198.64 623.128 198.64C622.381 198.64 621.708 198.813 621.108 199.16C620.521 199.493 620.054 199.973 619.708 200.6C619.374 201.227 619.208 201.94 619.208 202.74C619.208 203.54 619.374 204.253 619.708 204.88C620.054 205.507 620.521 205.993 621.108 206.34C621.708 206.673 622.381 206.84 623.128 206.84ZM635.562 197.4C636.936 197.4 637.989 197.747 638.722 198.44C639.456 199.12 639.822 200.133 639.822 201.48V208H638.462V206.36C638.142 206.907 637.669 207.333 637.042 207.64C636.429 207.947 635.696 208.1 634.842 208.1C633.669 208.1 632.736 207.82 632.042 207.26C631.349 206.7 631.002 205.96 631.002 205.04C631.002 204.147 631.322 203.427 631.962 202.88C632.616 202.333 633.649 202.06 635.062 202.06H638.402V201.42C638.402 200.513 638.149 199.827 637.642 199.36C637.136 198.88 636.396 198.64 635.422 198.64C634.756 198.64 634.116 198.753 633.502 198.98C632.889 199.193 632.362 199.493 631.922 199.88L631.282 198.82C631.816 198.367 632.456 198.02 633.202 197.78C633.949 197.527 634.736 197.4 635.562 197.4ZM635.062 206.98C635.862 206.98 636.549 206.8 637.122 206.44C637.696 206.067 638.122 205.533 638.402 204.84V203.12H635.102C633.302 203.12 632.402 203.747 632.402 205C632.402 205.613 632.636 206.1 633.102 206.46C633.569 206.807 634.222 206.98 635.062 206.98ZM648.719 207.36C648.453 207.6 648.119 207.787 647.719 207.92C647.333 208.04 646.926 208.1 646.499 208.1C645.513 208.1 644.753 207.833 644.219 207.3C643.686 206.767 643.419 206.013 643.419 205.04V198.68H641.539V197.48H643.419V195.18H644.839V197.48H648.039V198.68H644.839V204.96C644.839 205.587 644.993 206.067 645.299 206.4C645.619 206.72 646.073 206.88 646.659 206.88C646.953 206.88 647.233 206.833 647.499 206.74C647.779 206.647 648.019 206.513 648.219 206.34L648.719 207.36ZM654.733 208.1C653.72 208.1 652.806 207.873 651.993 207.42C651.18 206.953 650.54 206.313 650.073 205.5C649.606 204.687 649.373 203.767 649.373 202.74C649.373 201.713 649.606 200.793 650.073 199.98C650.54 199.167 651.18 198.533 651.993 198.08C652.806 197.627 653.72 197.4 654.733 197.4C655.746 197.4 656.66 197.627 657.473 198.08C658.286 198.533 658.92 199.167 659.373 199.98C659.84 200.793 660.073 201.713 660.073 202.74C660.073 203.767 659.84 204.687 659.373 205.5C658.92 206.313 658.286 206.953 657.473 207.42C656.66 207.873 655.746 208.1 654.733 208.1ZM654.733 206.84C655.48 206.84 656.146 206.673 656.733 206.34C657.333 205.993 657.8 205.507 658.133 204.88C658.466 204.253 658.633 203.54 658.633 202.74C658.633 201.94 658.466 201.227 658.133 200.6C657.8 199.973 657.333 199.493 656.733 199.16C656.146 198.813 655.48 198.64 654.733 198.64C653.986 198.64 653.313 198.813 652.713 199.16C652.126 199.493 651.66 199.973 651.313 200.6C650.98 201.227 650.813 201.94 650.813 202.74C650.813 203.54 650.98 204.253 651.313 204.88C651.66 205.507 652.126 205.993 652.713 206.34C653.313 206.673 653.986 206.84 654.733 206.84ZM663.832 199.54C664.166 198.833 664.659 198.3 665.312 197.94C665.979 197.58 666.799 197.4 667.772 197.4V198.78L667.432 198.76C666.326 198.76 665.459 199.1 664.832 199.78C664.206 200.46 663.892 201.413 663.892 202.64V208H662.472V197.48H663.832V199.54ZM679.133 197.48L673.873 209.26C673.446 210.247 672.953 210.947 672.393 211.36C671.833 211.773 671.159 211.98 670.373 211.98C669.866 211.98 669.393 211.9 668.953 211.74C668.513 211.58 668.132 211.34 667.812 211.02L668.473 209.96C669.006 210.493 669.646 210.76 670.393 210.76C670.873 210.76 671.279 210.627 671.613 210.36C671.959 210.093 672.279 209.64 672.573 209L673.033 207.98L668.333 197.48H669.813L673.773 206.42L677.733 197.48H679.133ZM35.58 221.16V236H34.22V233.92C33.7933 234.627 33.2267 235.167 32.52 235.54C31.8267 235.913 31.04 236.1 30.16 236.1C29.1733 236.1 28.28 235.873 27.48 235.42C26.68 234.967 26.0533 234.333 25.6 233.52C25.1467 232.707 24.92 231.78 24.92 230.74C24.92 229.7 25.1467 228.773 25.6 227.96C26.0533 227.147 26.68 226.52 27.48 226.08C28.28 225.627 29.1733 225.4 30.16 225.4C31.0133 225.4 31.78 225.58 32.46 225.94C33.1533 226.287 33.72 226.8 34.16 227.48V221.16H35.58ZM30.28 234.84C31.0133 234.84 31.6733 234.673 32.26 234.34C32.86 233.993 33.3267 233.507 33.66 232.88C34.0067 232.253 34.18 231.54 34.18 230.74C34.18 229.94 34.0067 229.227 33.66 228.6C33.3267 227.973 32.86 227.493 32.26 227.16C31.6733 226.813 31.0133 226.64 30.28 226.64C29.5333 226.64 28.86 226.813 28.26 227.16C27.6733 227.493 27.2067 227.973 26.86 228.6C26.5267 229.227 26.36 229.94 26.36 230.74C26.36 231.54 26.5267 232.253 26.86 232.88C27.2067 233.507 27.6733 233.993 28.26 234.34C28.86 234.673 29.5333 234.84 30.28 234.84ZM48.5147 225.48V236H47.1547V234.08C46.7814 234.72 46.268 235.22 45.6147 235.58C44.9614 235.927 44.2147 236.1 43.3747 236.1C42.0014 236.1 40.9147 235.72 40.1147 234.96C39.328 234.187 38.9347 233.06 38.9347 231.58V225.48H40.3547V231.44C40.3547 232.547 40.628 233.387 41.1747 233.96C41.7214 234.533 42.5014 234.82 43.5147 234.82C44.6214 234.82 45.4947 234.487 46.1347 233.82C46.7747 233.14 47.0947 232.2 47.0947 231V225.48H48.5147ZM57.5317 235.36C57.2651 235.6 56.9317 235.787 56.5317 235.92C56.1451 236.04 55.7384 236.1 55.3117 236.1C54.3251 236.1 53.5651 235.833 53.0317 235.3C52.4984 234.767 52.2317 234.013 52.2317 233.04V226.68H50.3517V225.48H52.2317V223.18H53.6517V225.48H56.8517V226.68H53.6517V232.96C53.6517 233.587 53.8051 234.067 54.1117 234.4C54.4317 234.72 54.8851 234.88 55.4717 234.88C55.7651 234.88 56.0451 234.833 56.3117 234.74C56.5917 234.647 56.8317 234.513 57.0317 234.34L57.5317 235.36ZM68.2614 225.48L63.0014 237.26C62.5747 238.247 62.0814 238.947 61.5214 239.36C60.9614 239.773 60.2881 239.98 59.5014 239.98C58.9947 239.98 58.5214 239.9 58.0814 239.74C57.6414 239.58 57.2614 239.34 56.9414 239.02L57.6014 237.96C58.1347 238.493 58.7747 238.76 59.5214 238.76C60.0014 238.76 60.4081 238.627 60.7414 238.36C61.0881 238.093 61.4081 237.64 61.7014 237L62.1614 235.98L57.4614 225.48H58.9414L62.9014 234.42L66.8614 225.48H68.2614ZM77.9756 222.26C77.3623 222.26 76.8956 222.427 76.5756 222.76C76.269 223.093 76.1156 223.587 76.1156 224.24V225.48H79.3556V226.68H76.1556V236H74.7356V226.68H72.8556V225.48H74.7356V224.18C74.7356 223.22 75.009 222.46 75.5556 221.9C76.1156 221.34 76.9023 221.06 77.9156 221.06C78.3156 221.06 78.7023 221.12 79.0756 221.24C79.449 221.347 79.7623 221.507 80.0156 221.72L79.5356 222.78C79.1223 222.433 78.6023 222.26 77.9756 222.26ZM84.8972 236.1C83.8839 236.1 82.9705 235.873 82.1572 235.42C81.3439 234.953 80.7039 234.313 80.2372 233.5C79.7705 232.687 79.5372 231.767 79.5372 230.74C79.5372 229.713 79.7705 228.793 80.2372 227.98C80.7039 227.167 81.3439 226.533 82.1572 226.08C82.9705 225.627 83.8839 225.4 84.8972 225.4C85.9105 225.4 86.8239 225.627 87.6372 226.08C88.4505 226.533 89.0839 227.167 89.5372 227.98C90.0039 228.793 90.2372 229.713 90.2372 230.74C90.2372 231.767 90.0039 232.687 89.5372 233.5C89.0839 234.313 88.4505 234.953 87.6372 235.42C86.8239 235.873 85.9105 236.1 84.8972 236.1ZM84.8972 234.84C85.6439 234.84 86.3105 234.673 86.8972 234.34C87.4972 233.993 87.9639 233.507 88.2972 232.88C88.6305 232.253 88.7972 231.54 88.7972 230.74C88.7972 229.94 88.6305 229.227 88.2972 228.6C87.9639 227.973 87.4972 227.493 86.8972 227.16C86.3105 226.813 85.6439 226.64 84.8972 226.64C84.1505 226.64 83.4772 226.813 82.8772 227.16C82.2905 227.493 81.8239 227.973 81.4772 228.6C81.1439 229.227 80.9772 229.94 80.9772 230.74C80.9772 231.54 81.1439 232.253 81.4772 232.88C81.8239 233.507 82.2905 233.993 82.8772 234.34C83.4772 234.673 84.1505 234.84 84.8972 234.84ZM93.9963 227.54C94.3296 226.833 94.8229 226.3 95.4763 225.94C96.1429 225.58 96.9629 225.4 97.9363 225.4V226.78L97.5963 226.76C96.4896 226.76 95.6229 227.1 94.9963 227.78C94.3696 228.46 94.0563 229.413 94.0563 230.64V236H92.6363V225.48H93.9963V227.54ZM114.058 231.18H105.258C105.338 232.273 105.758 233.16 106.518 233.84C107.278 234.507 108.238 234.84 109.398 234.84C110.051 234.84 110.651 234.727 111.198 234.5C111.745 234.26 112.218 233.913 112.618 233.46L113.418 234.38C112.951 234.94 112.365 235.367 111.658 235.66C110.965 235.953 110.198 236.1 109.358 236.1C108.278 236.1 107.318 235.873 106.478 235.42C105.651 234.953 105.005 234.313 104.538 233.5C104.071 232.687 103.838 231.767 103.838 230.74C103.838 229.713 104.058 228.793 104.498 227.98C104.951 227.167 105.565 226.533 106.338 226.08C107.125 225.627 108.005 225.4 108.978 225.4C109.951 225.4 110.825 225.627 111.598 226.08C112.371 226.533 112.978 227.167 113.418 227.98C113.858 228.78 114.078 229.7 114.078 230.74L114.058 231.18ZM108.978 226.62C107.965 226.62 107.111 226.947 106.418 227.6C105.738 228.24 105.351 229.08 105.258 230.12H112.718C112.625 229.08 112.231 228.24 111.538 227.6C110.858 226.947 110.005 226.62 108.978 226.62ZM125.113 225.48L120.433 236H118.973L114.313 225.48H115.793L119.733 234.44L123.713 225.48H125.113ZM135.48 231.18H126.68C126.76 232.273 127.18 233.16 127.94 233.84C128.7 234.507 129.66 234.84 130.82 234.84C131.473 234.84 132.073 234.727 132.62 234.5C133.167 234.26 133.64 233.913 134.04 233.46L134.84 234.38C134.373 234.94 133.787 235.367 133.08 235.66C132.387 235.953 131.62 236.1 130.78 236.1C129.7 236.1 128.74 235.873 127.9 235.42C127.073 234.953 126.427 234.313 125.96 233.5C125.493 232.687 125.26 231.767 125.26 230.74C125.26 229.713 125.48 228.793 125.92 227.98C126.373 227.167 126.987 226.533 127.76 226.08C128.547 225.627 129.427 225.4 130.4 225.4C131.373 225.4 132.247 225.627 133.02 226.08C133.793 226.533 134.4 227.167 134.84 227.98C135.28 228.78 135.5 229.7 135.5 230.74L135.48 231.18ZM130.4 226.62C129.387 226.62 128.533 226.947 127.84 227.6C127.16 228.24 126.773 229.08 126.68 230.12H134.14C134.047 229.08 133.653 228.24 132.96 227.6C132.28 226.947 131.427 226.62 130.4 226.62ZM139.25 227.54C139.583 226.833 140.077 226.3 140.73 225.94C141.397 225.58 142.217 225.4 143.19 225.4V226.78L142.85 226.76C141.743 226.76 140.877 227.1 140.25 227.78C139.623 228.46 139.31 229.413 139.31 230.64V236H137.89V225.48H139.25V227.54ZM154.55 225.48L149.29 237.26C148.864 238.247 148.37 238.947 147.81 239.36C147.25 239.773 146.577 239.98 145.79 239.98C145.284 239.98 144.81 239.9 144.37 239.74C143.93 239.58 143.55 239.34 143.23 239.02L143.89 237.96C144.424 238.493 145.064 238.76 145.81 238.76C146.29 238.76 146.697 238.627 147.03 238.36C147.377 238.093 147.697 237.64 147.99 237L148.45 235.98L143.75 225.48H145.23L149.19 234.42L153.15 225.48H154.55ZM160.785 225.48H162.205V236H160.785V225.48ZM161.505 223.18C161.211 223.18 160.965 223.08 160.765 222.88C160.565 222.68 160.465 222.44 160.465 222.16C160.465 221.893 160.565 221.66 160.765 221.46C160.965 221.26 161.211 221.16 161.505 221.16C161.798 221.16 162.045 221.26 162.245 221.46C162.445 221.647 162.545 221.873 162.545 222.14C162.545 222.433 162.445 222.68 162.245 222.88C162.045 223.08 161.798 223.18 161.505 223.18ZM171.016 225.4C172.336 225.4 173.382 225.787 174.156 226.56C174.942 227.32 175.336 228.433 175.336 229.9V236H173.916V230.04C173.916 228.947 173.642 228.113 173.096 227.54C172.549 226.967 171.769 226.68 170.756 226.68C169.622 226.68 168.722 227.02 168.056 227.7C167.402 228.367 167.076 229.293 167.076 230.48V236H165.656V225.48H167.016V227.42C167.402 226.78 167.936 226.287 168.616 225.94C169.309 225.58 170.109 225.4 171.016 225.4ZM188.33 221.16V236H186.97V233.92C186.543 234.627 185.977 235.167 185.27 235.54C184.577 235.913 183.79 236.1 182.91 236.1C181.923 236.1 181.03 235.873 180.23 235.42C179.43 234.967 178.803 234.333 178.35 233.52C177.897 232.707 177.67 231.78 177.67 230.74C177.67 229.7 177.897 228.773 178.35 227.96C178.803 227.147 179.43 226.52 180.23 226.08C181.03 225.627 181.923 225.4 182.91 225.4C183.763 225.4 184.53 225.58 185.21 225.94C185.903 226.287 186.47 226.8 186.91 227.48V221.16H188.33ZM183.03 234.84C183.763 234.84 184.423 234.673 185.01 234.34C185.61 233.993 186.077 233.507 186.41 232.88C186.757 232.253 186.93 231.54 186.93 230.74C186.93 229.94 186.757 229.227 186.41 228.6C186.077 227.973 185.61 227.493 185.01 227.16C184.423 226.813 183.763 226.64 183.03 226.64C182.283 226.64 181.61 226.813 181.01 227.16C180.423 227.493 179.957 227.973 179.61 228.6C179.277 229.227 179.11 229.94 179.11 230.74C179.11 231.54 179.277 232.253 179.61 232.88C179.957 233.507 180.423 233.993 181.01 234.34C181.61 234.673 182.283 234.84 183.03 234.84ZM191.785 225.48H193.205V236H191.785V225.48ZM192.505 223.18C192.211 223.18 191.965 223.08 191.765 222.88C191.565 222.68 191.465 222.44 191.465 222.16C191.465 221.893 191.565 221.66 191.765 221.46C191.965 221.26 192.211 221.16 192.505 221.16C192.798 221.16 193.045 221.26 193.245 221.46C193.445 221.647 193.545 221.873 193.545 222.14C193.545 222.433 193.445 222.68 193.245 222.88C193.045 223.08 192.798 223.18 192.505 223.18ZM205.496 225.48L200.816 236H199.356L194.696 225.48H196.176L200.116 234.44L204.096 225.48H205.496ZM206.996 225.48H208.416V236H206.996V225.48ZM207.716 223.18C207.422 223.18 207.176 223.08 206.976 222.88C206.776 222.68 206.676 222.44 206.676 222.16C206.676 221.893 206.776 221.66 206.976 221.46C207.176 221.26 207.422 221.16 207.716 221.16C208.009 221.16 208.256 221.26 208.456 221.46C208.656 221.647 208.756 221.873 208.756 222.14C208.756 222.433 208.656 222.68 208.456 222.88C208.256 223.08 208.009 223.18 207.716 223.18ZM221.467 221.16V236H220.107V233.92C219.68 234.627 219.113 235.167 218.407 235.54C217.713 235.913 216.927 236.1 216.047 236.1C215.06 236.1 214.167 235.873 213.367 235.42C212.567 234.967 211.94 234.333 211.487 233.52C211.033 232.707 210.807 231.78 210.807 230.74C210.807 229.7 211.033 228.773 211.487 227.96C211.94 227.147 212.567 226.52 213.367 226.08C214.167 225.627 215.06 225.4 216.047 225.4C216.9 225.4 217.667 225.58 218.347 225.94C219.04 226.287 219.607 226.8 220.047 227.48V221.16H221.467ZM216.167 234.84C216.9 234.84 217.56 234.673 218.147 234.34C218.747 233.993 219.213 233.507 219.547 232.88C219.893 232.253 220.067 231.54 220.067 230.74C220.067 229.94 219.893 229.227 219.547 228.6C219.213 227.973 218.747 227.493 218.147 227.16C217.56 226.813 216.9 226.64 216.167 226.64C215.42 226.64 214.747 226.813 214.147 227.16C213.56 227.493 213.093 227.973 212.747 228.6C212.413 229.227 212.247 229.94 212.247 230.74C212.247 231.54 212.413 232.253 212.747 232.88C213.093 233.507 213.56 233.993 214.147 234.34C214.747 234.673 215.42 234.84 216.167 234.84ZM234.401 225.48V236H233.041V234.08C232.668 234.72 232.155 235.22 231.501 235.58C230.848 235.927 230.101 236.1 229.261 236.1C227.888 236.1 226.801 235.72 226.001 234.96C225.215 234.187 224.821 233.06 224.821 231.58V225.48H226.241V231.44C226.241 232.547 226.515 233.387 227.061 233.96C227.608 234.533 228.388 234.82 229.401 234.82C230.508 234.82 231.381 234.487 232.021 233.82C232.661 233.14 232.981 232.2 232.981 231V225.48H234.401ZM241.558 225.4C242.932 225.4 243.985 225.747 244.718 226.44C245.452 227.12 245.818 228.133 245.818 229.48V236H244.458V234.36C244.138 234.907 243.665 235.333 243.038 235.64C242.425 235.947 241.692 236.1 240.838 236.1C239.665 236.1 238.732 235.82 238.038 235.26C237.345 234.7 236.998 233.96 236.998 233.04C236.998 232.147 237.318 231.427 237.958 230.88C238.612 230.333 239.645 230.06 241.058 230.06H244.398V229.42C244.398 228.513 244.145 227.827 243.638 227.36C243.132 226.88 242.392 226.64 241.418 226.64C240.752 226.64 240.112 226.753 239.498 226.98C238.885 227.193 238.358 227.493 237.918 227.88L237.278 226.82C237.812 226.367 238.452 226.02 239.198 225.78C239.945 225.527 240.732 225.4 241.558 225.4ZM241.058 234.98C241.858 234.98 242.545 234.8 243.118 234.44C243.692 234.067 244.118 233.533 244.398 232.84V231.12H241.098C239.298 231.12 238.398 231.747 238.398 233C238.398 233.613 238.632 234.1 239.098 234.46C239.565 234.807 240.218 234.98 241.058 234.98ZM249.175 221.16H250.595V236H249.175V221.16ZM254.186 236.1C253.893 236.1 253.64 235.993 253.426 235.78C253.226 235.567 253.126 235.307 253.126 235C253.126 234.693 253.226 234.44 253.426 234.24C253.64 234.027 253.893 233.92 254.186 233.92C254.48 233.92 254.733 234.027 254.946 234.24C255.16 234.44 255.266 234.693 255.266 235C255.266 235.307 255.16 235.567 254.946 235.78C254.733 235.993 254.48 236.1 254.186 236.1Z" fill="black"/>
<defs>
<linearGradient id="paint0_linear" x1="264" y1="181.257" x2="59.649" y2="63.0514" gradientUnits="userSpaceOnUse">
<stop stop-color="#208EA6"/>
<stop offset="1" stop-color="#208EA6" stop-opacity="0"/>
</linearGradient>
</defs>
</svg>
